<?xml version="1.0" encoding="utf-8"?>
<!-- Generator: Adobe Illustrator 21.1.0, SVG Export Plug-In . SVG Version: 6.00 Build 0)  -->
<svg version="1.0" id="Layer_1" xmlns="http://www.w3.org/2000/svg" xmlns:xlink="http://www.w3.org/1999/xlink" x="0px" y="0px"
	 viewBox="0 0 182.5 94" enable-background="new 0 0 182.5 94" xml:space="preserve">
<path fill="#A1C51C" d="M181.6,13.5L181.6,13.5c0.1-0.6-0.2-1.1-0.2-1.6c0-0.3-0.1-0.6-0.2-0.8c-0.2-0.5-0.3-0.9-0.5-1.3
	c-0.2-0.5-0.5-0.9-0.7-1.4c-0.4-0.7-0.9-1.4-1.3-2.1c-0.1-0.1-0.2-0.2-0.3-0.3c-0.4-0.3-0.7-0.9-1.1-1.2c-0.9-0.6-1.6-1.4-2.5-1.9
	c-0.6-0.3-1.3-0.7-2-1c-0.6-0.3-1.2-0.5-1.8-0.7c-0.5-0.2-1-0.2-1.4-0.4c-0.2,0-0.3,0-0.5,0c-0.3,0-0.5,0.1-0.7-0.1
	c-0.2-0.1-0.3,0-0.5,0c-5.6,0-93.1,0-98.7,0c-18.2,0-36.5,0-54.7,0c-0.3,0-0.6-0.1-0.9,0.1c0,0-0.2,0-0.3,0c-0.3,0.1-0.6,0-0.9,0.2
	c-0.5,0-0.8,0.3-1.3,0.4c-0.3,0.1-0.7,0.3-1.1,0.4C9.1,2.1,8.3,2.5,7.6,2.9C7.2,3.2,6.8,3.5,6.4,3.8S5.7,4.4,5.3,4.7
	C5,4.9,4.8,5.1,4.7,5.3C4.6,5.7,4.2,5.9,4,6.2C3.2,7,2.7,8,2.3,8.9c-0.3,0.6-0.6,1.3-0.8,2c-0.2,0.5-0.3,0.9-0.4,1.4
	C1.1,12.7,1,13,1,13.4v0.1c-0.3,0.5-0.2,0.9-0.2,1.4c0,21.6,0,43.3,0,64.9c0,0.3-0.1,0.5,0.1,0.8c0,0.1,0,0.3,0,0.4
	c0,0.3-0.1,0.6,0.1,0.8c0,0.1,0,0.1,0,0.2c0,0.5,0.2,1,0.4,1.4c0.1,0.4,0.3,0.9,0.4,1.3C2,85.2,2.2,85.6,2.4,86
	c0.6,0.8,1.1,1.7,1.8,2.5c0.4,0.5,0.9,1,1.4,1.5c1.1,0.9,2.3,1.8,3.7,2.4c0.5,0.2,1,0.3,1.5,0.5c0.6,0.2,1.2,0.3,1.7,0.5
	c0.3,0.1,0.7,0,1,0.1c0.1,0.1,0.2,0.1,0.2,0.2c24.4,0,130.7,0,155,0c0-0.1,0-0.2,0.3-0.3c0.2,0,0.4-0.1,0.7-0.1
	c0.4,0.1,0.7-0.1,1.1-0.2c0.4-0.1,0.7-0.1,1-0.3c0.1-0.1,0.3-0.2,0.4-0.2c0.9-0.3,1.7-0.7,2.5-1.2c0.8-0.4,1.5-1,2.2-1.6
	c0.6-0.6,1.2-1.3,1.8-1.9c0.2-0.2,0.3-0.5,0.5-0.8c0.5-0.7,0.9-1.5,1.3-2.3c0.2-0.4,0.4-0.9,0.5-1.4c0-0.2,0.1-0.3,0.2-0.5
	c0.2-0.4,0.1-0.8,0.3-1.2c0-0.1,0-0.2,0-0.3c0.1-0.4,0-0.7,0.2-1c0-0.1,0-0.3,0-0.4c0-2.2,0-4.3,0-6.5c0-19.7,0-39.5,0-59.2
	C181.7,14,181.8,13.7,181.6,13.5z"/>
<title>41 all</title>
<g transform="translate(0,-952.36218)">
	<path fill="#FFFFFF" d="M92.7,964.6c-0.5,0-1,0-1.5,0c-2.6,0.1-5.2,0.5-7.8,1.2c-18.8,5-29.9,24.4-24.9,43.2
		c5,18.8,24.4,30,43.2,24.9s29.9-24.4,24.9-43.2c-0.4-1.8-2.2-3-4-2.6s-3,2.2-2.6,4c0,0.1,0.1,0.2,0.1,0.3
		c4.1,15.3-4.9,30.9-20.2,35s-30.9-4.9-35-20.2s4.9-30.9,20.2-35c8.3-2.2,17.2-0.6,24.2,4.5c1.5,1.1,3.6,0.8,4.7-0.7
		s0.8-3.6-0.7-4.7l0,0C107.2,967,100,964.6,92.7,964.6L92.7,964.6z M129.2,967.1c-0.9,0-1.7,0.4-2.3,1.1
		c-8.9,9.3-26.5,28.4-36.4,38.7l-11.8-10.4c-1.4-1.2-3.5-1.1-4.7,0.3s-1.1,3.5,0.3,4.7l0,0l14.3,12.6c1.4,1.2,3.4,1.1,4.7-0.2
		c9.4-9.8,29.3-31.4,38.5-41.1c1.3-1.3,1.3-3.5-0.1-4.7C131.1,967.4,130.2,967.1,129.2,967.1z"/>
</g>
</svg>
