<?xml version="1.0" encoding="utf-8"?>
<!-- Generator: Adobe Illustrator 21.1.0, SVG Export Plug-In . SVG Version: 6.00 Build 0)  -->
<svg version="1.0" id="Layer_5_xA0_Image_1_" xmlns="http://www.w3.org/2000/svg" xmlns:xlink="http://www.w3.org/1999/xlink"
	 x="0px" y="0px" viewBox="0 0 296 296" enable-background="new 0 0 296 296" xml:space="preserve">
<g>
	<rect fill="#DCDCDC" width="296" height="296"/>
	<path fill="#FEFEFE" d="M210.4,191.6c6.4,4.5,14,6.5,20.4,11.1c12.6,9,18,21.7,20.5,36.2c0.4,2.4-1.2,3.4-3.6,3.7
		c-14.1,1.9-28.3,3.5-42.4,5.2c-27,3.2-54.1,3.2-81.2,2.6c-16.2-0.4-32.4-2.1-48.5-4.5c-9.2-1.4-18.5-1.7-27.5-4
		c-2.9-0.8-3.9-1.4-3.1-4.5c3.9-15.5,12.5-27.5,25.7-36.5c5.4-3.6,12-4.7,16.8-9.3c2.9-0.2,5.2-2.1,7.7-3.2
		c8.6-4.1,17.4-8.1,24-15.4c6.4-7.1,6.5-12.9,0.9-20.4c-7.4-9.9-13.5-20.4-16-32.8c-2.4-11.7-2-23.4-0.6-35.2c1.3-9.7,5.8-18,11-26
		c1.2-0.1,1.9-0.8,2-2c2.3-0.6,3.3-2.7,5-4c1.4,0,2.8-0.1,3-2c1-0.4,2-0.8,3-1.2c3.1-0.7,6.2-1.4,9-3c13.9-2.3,27.1-1.1,39,7.1
		c1.8,2.9,4.1,5.3,7.1,7c0.1,1.2,0.7,1.9,1.9,2.1c0.2,1,0.2,2.1,0.7,2.9c6.9,11.2,8.1,24,7.9,36.4c-0.3,16.5-6.2,31.9-14.4,46.3
		c-3.1,5.4-6.2,11.2-2.8,17.9C183.1,180.2,196.6,186,210.4,191.6z"/>
</g>
</svg>
