<?xml version="1.0" encoding="utf-8"?>
<!-- Generator: Adobe Illustrator 21.1.0, SVG Export Plug-In . SVG Version: 6.00 Build 0)  -->
<svg version="1.0" id="Layer_1" xmlns="http://www.w3.org/2000/svg" xmlns:xlink="http://www.w3.org/1999/xlink" x="0px" y="0px"
	 viewBox="0 0 473 94" enable-background="new 0 0 473 94" xml:space="preserve">
<path fill="#41C0F0" d="M471.6,13.5L471.6,13.5c0.1-0.6-0.2-1.1-0.2-1.6c0-0.3-0.1-0.6-0.2-0.8c-0.2-0.5-0.3-0.9-0.5-1.3
	c-0.2-0.5-0.5-0.9-0.7-1.4c-0.4-0.7-0.9-1.4-1.3-2.1c-0.1-0.1-0.2-0.2-0.3-0.3c-0.4-0.3-0.7-0.9-1.1-1.2c-0.9-0.6-1.6-1.4-2.5-1.9
	c-0.6-0.3-1.3-0.7-2-1c-0.6-0.3-1.2-0.5-1.8-0.7c-0.5-0.2-1-0.2-1.4-0.4c-0.2,0-0.3,0-0.5,0c-0.3,0-0.5,0.1-0.7-0.1
	c-0.2-0.1-0.3,0-0.5,0c-5.6,0-383.1,0-388.7,0c-18.2,0-36.5,0-54.7,0c-0.3,0-0.6-0.1-0.9,0.1c0,0-0.2,0-0.3,0
	c-0.3,0.1-0.6,0-0.9,0.2c-0.5,0-0.8,0.3-1.3,0.4c-0.3,0.1-0.7,0.3-1.1,0.4C9.1,2.1,8.3,2.5,7.6,2.9C7.2,3.2,6.8,3.5,6.4,3.8
	S5.7,4.4,5.3,4.7C5,4.9,4.8,5.1,4.7,5.3C4.6,5.7,4.2,5.9,4,6.2C3.2,7,2.7,8,2.3,8.9c-0.3,0.6-0.6,1.3-0.8,2
	c-0.2,0.5-0.3,0.9-0.4,1.4C1.1,12.7,1,13,1,13.4v0.1c-0.3,0.5-0.2,0.9-0.2,1.4c0,21.6,0,43.3,0,64.9c0,0.3-0.1,0.5,0.1,0.8
	c0,0.1,0,0.3,0,0.4c0,0.3-0.1,0.6,0.1,0.8c0,0.1,0,0.1,0,0.2c0,0.5,0.2,1,0.4,1.4c0.1,0.4,0.3,0.9,0.4,1.3C2,85.2,2.2,85.6,2.4,86
	c0.6,0.8,1.1,1.7,1.8,2.5c0.4,0.5,0.9,1,1.4,1.5c1.1,0.9,2.3,1.8,3.7,2.4c0.5,0.2,1,0.3,1.5,0.5c0.6,0.2,1.2,0.3,1.7,0.5
	c0.3,0.1,0.7,0,1,0.1c0.1,0.1,0.2,0.1,0.2,0.2c24.4,0,420.7,0,445,0c0-0.1,0-0.2,0.3-0.3c0.2,0,0.4-0.1,0.7-0.1
	c0.4,0.1,0.7-0.1,1.1-0.2c0.4-0.1,0.7-0.1,1-0.3c0.1-0.1,0.3-0.2,0.4-0.2c0.9-0.3,1.7-0.7,2.5-1.2c0.8-0.4,1.5-1,2.2-1.6
	c0.6-0.6,1.2-1.3,1.8-1.9c0.2-0.2,0.3-0.5,0.5-0.8c0.5-0.7,0.9-1.5,1.3-2.3c0.2-0.4,0.4-0.9,0.5-1.4c0-0.2,0.1-0.3,0.2-0.5
	c0.2-0.4,0.1-0.8,0.3-1.2c0-0.1,0-0.2,0-0.3c0.1-0.4,0-0.7,0.2-1c0-0.1,0-0.3,0-0.4c0-2.2,0-4.3,0-6.5c0-19.7,0-39.5,0-59.2
	C471.7,14,471.8,13.7,471.6,13.5z"/>
<title>41 all</title>
<g>
	<path fill="#FFFFFF" d="M270.1,28.5h-16.8v10h11.8v27.7h-53.6V38.5h11.8v-10h-16.8c-2.8,0-5,2.2-5,5v37.7c0,2.8,2.2,5,5,5h63.7
		c2.8,0,5-2.2,5-5V33.5C275.1,30.8,272.9,28.5,270.1,28.5z"/>
	<path fill="#FFFFFF" d="M220.7,48.2l14.4,12.3c1.6,1.4,3.9,1.4,5.6,0L255,48.2l-5.6-6.5l-7.3,6.3V11.4h-8.6V48l-7.3-6.3L220.7,48.2
		z"/>
</g>
</svg>
