<?xml version="1.0" encoding="utf-8"?>
<!-- Generator: Adobe Illustrator 21.1.0, SVG Export Plug-In . SVG Version: 6.00 Build 0)  -->
<svg version="1.1" id="Layer_1" xmlns="http://www.w3.org/2000/svg" xmlns:xlink="http://www.w3.org/1999/xlink" x="0px" y="0px"
	 viewBox="0 0 100 94" style="enable-background:new 0 0 100 94;" xml:space="preserve">
<style type="text/css">
	.st0{fill:#E52321;}
	.st1{fill:#FFFFFF;}
</style>
<path class="st0" d="M99.6,13.5L99.6,13.5c0.1-0.6-0.2-1.1-0.2-1.6c0-0.3-0.1-0.6-0.2-0.8c-0.2-0.5-0.3-0.9-0.5-1.3
	c-0.2-0.5-0.5-0.9-0.7-1.4c-0.4-0.7-0.9-1.4-1.3-2.1c-0.1-0.1-0.2-0.2-0.3-0.3c-0.4-0.3-0.7-0.9-1.1-1.2c-0.9-0.6-1.6-1.4-2.5-1.9
	c-0.6-0.3-1.3-0.7-2-1c-0.6-0.3-1.2-0.5-1.8-0.7C88.5,1,88,1,87.6,0.8c-0.2,0-0.3,0-0.5,0c-0.3,0-0.5,0.1-0.7-0.1
	c-0.2-0.1-0.3,0-0.5,0c-5.6,0-11.1,0-16.7,0c-18.2,0-36.5,0-54.7,0c-0.3,0-0.6-0.1-0.9,0.1c0,0-0.2,0-0.3,0c-0.3,0.1-0.6,0-0.9,0.2
	c-0.5,0-0.8,0.3-1.3,0.4c-0.3,0.1-0.7,0.3-1.1,0.4C9.1,2.1,8.3,2.5,7.6,2.9C7.2,3.2,6.8,3.5,6.4,3.8S5.7,4.4,5.3,4.7
	C5,4.9,4.8,5.1,4.7,5.3C4.6,5.7,4.2,5.9,4,6.2C3.2,7,2.7,8,2.3,8.9c-0.3,0.6-0.6,1.3-0.8,2c-0.2,0.5-0.3,0.9-0.4,1.4
	C1.1,12.7,1,13,1,13.4v0.1c-0.3,0.5-0.2,0.9-0.2,1.4c0,21.6,0,43.3,0,64.9c0,0.3-0.1,0.5,0.1,0.8c0,0.1,0,0.3,0,0.4
	c0,0.3-0.1,0.6,0.1,0.8c0,0.1,0,0.1,0,0.2c0,0.5,0.2,1,0.4,1.4c0.1,0.4,0.3,0.9,0.4,1.3C2,85.2,2.2,85.6,2.4,86
	c0.6,0.8,1.1,1.7,1.8,2.5c0.4,0.5,0.9,1,1.4,1.5c1.1,0.9,2.3,1.8,3.7,2.4c0.5,0.2,1,0.3,1.5,0.5c0.6,0.2,1.2,0.3,1.7,0.5
	c0.3,0.1,0.7,0,1,0.1c0.1,0.1,0.2,0.1,0.2,0.2c24.4,0,48.7,0,73,0c0-0.1,0-0.2,0.3-0.3c0.2,0,0.4-0.1,0.7-0.1
	c0.4,0.1,0.7-0.1,1.1-0.2s0.7-0.1,1-0.3c0.1-0.1,0.3-0.2,0.4-0.2c0.9-0.3,1.7-0.7,2.5-1.2c0.8-0.4,1.5-1,2.2-1.6
	c0.6-0.6,1.2-1.3,1.8-1.9c0.2-0.2,0.3-0.5,0.5-0.8c0.5-0.7,0.9-1.5,1.3-2.3c0.2-0.4,0.4-0.9,0.5-1.4c0-0.2,0.1-0.3,0.2-0.5
	c0.2-0.4,0.1-0.8,0.3-1.2c0-0.1,0-0.2,0-0.3c0.1-0.4,0-0.7,0.2-1c0-0.1,0-0.3,0-0.4c0-2.2,0-4.3,0-6.5c0-19.7,0-39.5,0-59.2
	C99.7,14,99.8,13.7,99.6,13.5z"/>
<title>41 all</title>
<path class="st1" d="M71.6,17.7c-3.6-2.6-7.7-4.5-12-5.7C56.8,11.4,53.9,11,51,11c-14.3,0-27.4,8.9-32.6,22.2
	c-0.5,1.3-1,2.7-1.3,4.1c-2.3,9-0.9,18.5,3.9,26.5c4.8,8,12.4,13.7,21.4,16c2.8,0.7,5.7,1.1,8.6,1.1C67,81,81,70.1,84.9,54.6
	C88.4,40.7,83.2,26.2,71.6,17.7z M24.8,39.4c0.3-1.1,0.6-2.2,1-3.2c1-2.5,2.3-4.8,4-7l36,39.4c-6.2,4.1-14.2,5.5-21.5,3.6h0
	C29.9,68.5,21.2,53.8,24.8,39.4z M57.6,19.8c3.4,0.9,6.5,2.3,9.3,4.4c8.9,6.5,13,17.7,10.2,28.4c-1,3.9-2.8,7.5-5.4,10.5l-36-39.4
	C42.1,19.4,50.2,17.9,57.6,19.8z"/>
</svg>
