<?xml version="1.0" encoding="utf-8"?>
<!-- Generator: Adobe Illustrator 21.1.0, SVG Export Plug-In . SVG Version: 6.00 Build 0)  -->
<svg version="1.0" id="Layer_1" xmlns="http://www.w3.org/2000/svg" xmlns:xlink="http://www.w3.org/1999/xlink" x="0px" y="0px"
	 viewBox="0 0 612 472" enable-background="new 0 0 612 472" xml:space="preserve">
<g>
	<g>
		<path fill="#B8B8B8" d="M419.5,214.5c47.1,45.1,93.8,89.8,141.5,135.5c0-3,0-4.7,0-6.4c0-57.5,0-115,0-172.5
			c0-9.4,5.4-15.8,13.8-16.5c8.3-0.6,15.3,5.4,16.1,13.7c0.1,1.5,0.1,3,0.1,4.5c0,75,0,150,0,225c0,35.9-24.3,60.2-60.2,60.2
			c-149,0-298,0-447,0c-30.6,0-54.1-20-58.3-50.2c-1-7.4-0.6-15-0.6-22.5c0-105.5,0-211,0.1-316.5c0-28.4,17.3-50.9,44.2-57.3
			c4.6-1.1,9.6-1.5,14.3-1.5C233.4,10,383.2,10,533,10c32.9,0,57.8,25,58,57.9c0,4-0.3,8,0.1,12c0.6,7.3-2.3,12.3-8.2,16.5
			c-37.7,27.1-75.4,54.4-113,81.7C453.3,190.1,436.7,202.1,419.5,214.5z M221.6,232.7c-0.9,0.4-1.2,0.5-1.4,0.7
			C165.8,285.5,111.4,337.5,57,389.7c-0.9,0.8-1.9,2.1-1.9,3.3c-0.1,4.3-0.3,8.7,0.4,12.9c2.6,13.9,13.5,22.1,28.9,22.1
			c149,0,297.9,0,446.9,0c1,0,2,0,3,0c13.5-0.4,24.6-10.1,26.4-23.5c1-7.6,0-13.8-6.5-19.9c-52.2-49.3-103.9-99.1-155.8-148.8
			c-1.2-1.1-2.4-2.2-3.7-3.4c-1.8,1.2-3.3,2.3-4.7,3.3c-23.2,16.8-46.4,33.6-69.6,50.4c-10.1,7.3-14.6,7.3-24.6,0.1
			C271,268.4,246.3,250.6,221.6,232.7z M307.9,258.1c1.8-1.3,3.3-2.3,4.8-3.4c38.1-27.5,76.1-55.1,114.2-82.6
			c43.3-31.3,86.6-62.6,129.9-94.1c1.7-1.2,3.8-3.2,4-5c2.3-19.7-9.9-33-29.8-33c-148.6,0-297.3,0-445.9,0c-19.2,0-30,10.9-30.2,30
			c-0.1,4,1.4,6.2,4.5,8.5c47.7,34.4,95.3,68.9,142.9,103.3C237.4,207.1,272.5,232.5,307.9,258.1z M55.3,112.4
			c0,79.5,0,157.9,0,237.3c47.4-45.4,94.1-90.1,141.2-135.2C149.4,180.4,102.6,146.6,55.3,112.4z"/>
	</g>
</g>
</svg>
