<?xml version="1.0" encoding="utf-8"?>
<!-- Generator: Adobe Illustrator 21.1.0, SVG Export Plug-In . SVG Version: 6.00 Build 0)  -->
<svg version="1.0" id="Layer_1" xmlns="http://www.w3.org/2000/svg" xmlns:xlink="http://www.w3.org/1999/xlink" x="0px" y="0px"
	 viewBox="0 0 100 94" enable-background="new 0 0 100 94" xml:space="preserve">
<linearGradient id="SVGID_1_" gradientUnits="userSpaceOnUse" x1="0.775" y1="47.1778" x2="99.725" y2="47.1778">
	<stop  offset="0" style="stop-color:#FD4F74"/>
	<stop  offset="1" style="stop-color:#FC7759"/>
</linearGradient>
<path fill="url(#SVGID_1_)" d="M99.6,13.5L99.6,13.5c0.1-0.6-0.2-1.1-0.2-1.6c0-0.3-0.1-0.6-0.2-0.8c-0.2-0.5-0.3-0.9-0.5-1.3
	c-0.2-0.5-0.5-0.9-0.7-1.4c-0.4-0.7-0.9-1.4-1.3-2.1c-0.1-0.1-0.2-0.2-0.3-0.3c-0.4-0.3-0.7-0.9-1.1-1.2c-0.9-0.6-1.6-1.4-2.5-1.9
	c-0.6-0.3-1.3-0.7-2-1c-0.6-0.3-1.2-0.5-1.8-0.7C88.5,1,88,1,87.6,0.8c-0.2,0-0.3,0-0.5,0c-0.3,0-0.5,0.1-0.7-0.1
	c-0.2-0.1-0.3,0-0.5,0c-5.6,0-11.1,0-16.7,0c-18.2,0-36.5,0-54.7,0c-0.3,0-0.6-0.1-0.9,0.1c0,0-0.2,0-0.3,0c-0.3,0.1-0.6,0-0.9,0.2
	c-0.5,0-0.8,0.3-1.3,0.4c-0.3,0.1-0.7,0.3-1.1,0.4C9.1,2.1,8.3,2.5,7.6,2.9C7.2,3.2,6.8,3.5,6.4,3.8C6,4.1,5.7,4.4,5.3,4.7
	C5,4.9,4.8,5.1,4.7,5.3C4.6,5.7,4.2,5.9,4,6.2C3.2,7,2.7,8,2.3,8.9c-0.3,0.6-0.6,1.3-0.8,2c-0.2,0.5-0.3,0.9-0.4,1.4
	C1.1,12.7,1,13,1,13.4v0.1c-0.3,0.5-0.2,0.9-0.2,1.4c0,21.6,0,43.3,0,64.9c0,0.3-0.1,0.5,0.1,0.8c0,0.1,0,0.3,0,0.4
	c0,0.3-0.1,0.6,0.1,0.8c0,0.1,0,0.1,0,0.2c0,0.5,0.2,1,0.4,1.4c0.1,0.4,0.3,0.9,0.4,1.3C2,85.2,2.2,85.6,2.4,86
	c0.6,0.8,1.1,1.7,1.8,2.5c0.4,0.5,0.9,1,1.4,1.5c1.1,0.9,2.3,1.8,3.7,2.4c0.5,0.2,1,0.3,1.5,0.5c0.6,0.2,1.2,0.3,1.7,0.5
	c0.3,0.1,0.7,0,1,0.1c0.1,0.1,0.2,0.1,0.2,0.2c24.4,0,48.7,0,73,0c0-0.1,0-0.2,0.3-0.3c0.2,0,0.4-0.1,0.7-0.1
	c0.4,0.1,0.7-0.1,1.1-0.2c0.4-0.1,0.7-0.1,1-0.3c0.1-0.1,0.3-0.2,0.4-0.2c0.9-0.3,1.7-0.7,2.5-1.2c0.8-0.4,1.5-1,2.2-1.6
	c0.6-0.6,1.2-1.3,1.8-1.9c0.2-0.2,0.3-0.5,0.5-0.8c0.5-0.7,0.9-1.5,1.3-2.3c0.2-0.4,0.4-0.9,0.5-1.4c0-0.2,0.1-0.3,0.2-0.5
	c0.2-0.4,0.1-0.8,0.3-1.2c0-0.1,0-0.2,0-0.3c0.1-0.4,0-0.7,0.2-1c0-0.1,0-0.3,0-0.4c0-2.2,0-4.3,0-6.5c0-19.7,0-39.5,0-59.2
	C99.7,14,99.8,13.7,99.6,13.5z"/>
<title>41 all</title>
<path fill="#FFFFFF" d="M89.6,25.5L72.7,8.7c-0.9-0.9-2.5-0.9-3.4,0L59.2,18.8c0,0,0,0,0,0s0,0,0,0L20.7,57.3
	c-0.3,0.3-0.6,0.8-0.6,1.2l-4.3,21.1c-0.2,0.8,0.1,1.6,0.6,2.2c0.5,0.5,1.1,0.7,1.7,0.7c0.2,0,0.3,0,0.5,0l21.1-4.3
	c0.5-0.1,0.9-0.3,1.2-0.6l6.7-6.7c0,0,0,0,0,0c0,0,0,0,0,0L79.4,39c0,0,0,0,0,0c0.5-0.5,0.7-1.1,0.7-1.7s-0.2-1.2-0.7-1.7
	c0,0,0,0,0,0L64.3,20.5l6.8-6.8l13.5,13.5l-3.1,3.1c-0.9,0.9-0.9,2.4,0,3.4c0.9,0.9,2.4,0.9,3.4,0l4.8-4.8c0.4-0.4,0.7-1.1,0.7-1.7
	S90,25.9,89.6,25.5z M38,73.7l-16.9,3.4l3.4-16.9l4.5-4.5l13.5,13.5L38,73.7z M74.4,37.3L45.9,65.8l-5-5l28.4-28.4L74.4,37.3z
	 M66,28.9L37.5,57.3l-5-5l28.4-28.4L66,28.9z"/>
</svg>
