<?xml version="1.0" encoding="utf-8"?>
<!-- Generator: Adobe Illustrator 21.1.0, SVG Export Plug-In . SVG Version: 6.00 Build 0)  -->
<svg version="1.0" id="Layer_1" xmlns="http://www.w3.org/2000/svg" xmlns:xlink="http://www.w3.org/1999/xlink" x="0px" y="0px"
	 viewBox="0 0 100 94" enable-background="new 0 0 100 94" xml:space="preserve">
<title>41 all</title>
<g>
	<path fill="#EBEBEB" d="M49.9,32.9c-7.5,0-15,0-22.5,0c-0.6,0-0.5,0-0.5-0.6c0-1.9,0-3.7,0-5.6c0-0.1,0-0.2,0-0.3
		c0-0.2,0.1-0.2,0.2-0.2c0.1,0,0.2,0,0.4,0c14.9,0,29.9,0,44.8,0c0.8,0,0.7,0,0.7,0.7c0,1.8,0,3.6,0,5.4c0,0.1,0,0.2,0,0.4
		c0,0.1-0.1,0.2-0.2,0.2c-0.1,0-0.3,0-0.4,0C64.9,32.9,57.4,32.9,49.9,32.9z"/>
	<path fill="#EBEBEB" d="M49.8,19.7c-2.6,0-5.3,0-7.9,0c-0.5,0-0.5,0-0.5-0.5c0-0.9,0-1.7,0-2.6c0-0.1,0-0.2,0-0.3
		c0-0.2,0.2-0.4,0.5-0.4c0.1,0,0.2,0,0.3,0c5.2,0,10.3,0,15.5,0c0.1,0,0.3,0,0.4,0c0.2,0.1,0.4,0.3,0.4,0.6c0,0.9,0,1.8,0,2.8
		c0,0.4-0.1,0.4-0.5,0.4C55.2,19.7,52.5,19.7,49.8,19.7z"/>
	<g>
		<path fill="#EBEBEB" d="M86.7,93.7c-24.3,0-48.6,0-73,0c0-0.1-0.1-0.1-0.2-0.2c-0.3-0.1-0.7,0-1-0.1c-0.5-0.2-1.1-0.3-1.7-0.5
			c-0.5-0.2-1-0.3-1.5-0.5c-1.4-0.6-2.6-1.5-3.7-2.4c-0.5-0.5-1-1-1.4-1.5C3.5,87.7,3,86.8,2.4,86c-0.2-0.4-0.4-0.8-0.6-1.3
			c-0.1-0.4-0.3-0.9-0.4-1.3C1.2,83,1,82.5,1,82c0-0.1,0-0.1,0-0.2c-0.2-0.2-0.1-0.5-0.1-0.8c0-0.1,0-0.3,0-0.4
			c-0.2-0.3-0.1-0.5-0.1-0.8c0-21.6,0-43.3,0-64.9c0-0.5-0.1-0.9,0.2-1.4c0,0,0-0.1,0-0.1c0-0.4,0.1-0.7,0.1-1.1
			c0.1-0.5,0.2-0.9,0.4-1.4c0.2-0.7,0.5-1.4,0.8-2C2.7,8,3.2,7,4,6.2c0.2-0.3,0.6-0.5,0.7-0.9C4.8,5.1,5,4.9,5.3,4.7
			C5.7,4.4,6,4.1,6.4,3.8c0.4-0.3,0.8-0.6,1.2-0.9C8.3,2.5,9.1,2.1,10,1.8c0.4-0.1,0.8-0.3,1.1-0.4C11.6,1.3,11.9,1,12.4,1
			c0.3-0.2,0.6-0.1,0.9-0.2c0.1,0,0.3,0,0.3,0c0.3-0.2,0.6-0.1,0.9-0.1c18.2,0,36.5,0,54.7,0c5.6,0,11.1,0,16.7,0
			c0.2,0,0.3-0.1,0.5,0c0.2,0.2,0.4,0.1,0.7,0.1c0.2,0,0.3,0,0.5,0c0.4,0.2,0.9,0.2,1.4,0.4c0.6,0.2,1.2,0.4,1.8,0.7
			c0.7,0.3,1.4,0.7,2,1c0.9,0.5,1.6,1.3,2.5,1.9c0.4,0.3,0.7,0.9,1.1,1.2c0.1,0.1,0.2,0.2,0.3,0.3c0.4,0.7,0.9,1.4,1.3,2.1
			c0.2,0.5,0.5,0.9,0.7,1.4c0.2,0.4,0.3,0.8,0.5,1.3c0.1,0.2,0.2,0.5,0.2,0.8c0,0.5,0.3,1,0.2,1.5c0,0,0,0.1,0,0.1
			c0.2,0.2,0.1,0.5,0.1,0.8c0,19.7,0,39.5,0,59.2c0,2.2,0,4.3,0,6.5c0,0.1,0,0.3,0,0.4c-0.2,0.3-0.1,0.6-0.2,1c0,0.1,0,0.2,0,0.3
			c-0.2,0.4-0.1,0.8-0.3,1.2c-0.1,0.2-0.2,0.3-0.2,0.5c-0.1,0.5-0.3,1-0.5,1.4c-0.4,0.8-0.8,1.6-1.3,2.3c-0.2,0.3-0.3,0.6-0.5,0.8
			c-0.6,0.6-1.2,1.3-1.8,1.9c-0.7,0.6-1.4,1.2-2.2,1.6c-0.8,0.5-1.6,0.9-2.5,1.2c-0.1,0-0.3,0.1-0.4,0.2c-0.3,0.2-0.6,0.2-1,0.3
			c-0.4,0.1-0.7,0.3-1.1,0.2c-0.3,0-0.5,0.1-0.7,0.1C86.7,93.5,86.7,93.6,86.7,93.7z M24.7,56.8c0,4.8,0,9.6,0,14.4
			c0,1.1-0.1,2.2,0.1,3.3c0.1,0.5,0.2,1.1,0.4,1.6c0.2,0.9,0.6,1.6,1,2.4c0.5,1,1.2,1.9,2,2.6c0.3,0.3,0.6,0.5,0.8,0.8
			c0.6,0.6,1.4,1.1,2.2,1.5c0.6,0.3,1.2,0.6,1.9,0.8c0.4,0.1,0.9,0.3,1.3,0.4c0.9,0.2,1.9,0.2,2.8,0.2c8.5,0,17,0,25.5,0
			c1.3,0,2.5,0,3.7-0.4c0.6-0.2,1.2-0.4,1.8-0.6c0.8-0.3,1.5-0.8,2.2-1.3c0.3-0.2,0.6-0.5,0.9-0.8c1-0.7,1.6-1.7,2.3-2.7
			c0.4-0.7,0.8-1.5,1.1-2.3c0.2-0.7,0.5-1.3,0.5-2.1c0-0.1,0-0.2,0-0.2c0.2-0.3,0.1-0.7,0.1-1c0-3.8,0-7.6,0-11.5
			c0-7.3,0-14.6,0-21.9c0-0.5,0-0.5,0.5-0.7c0,0,0.1,0,0.1,0c0.9-0.4,1.7-0.9,2.4-1.7c0.8-0.9,1.3-2.1,1.3-3.3c0-3.1,0-6.3,0-9.4
			c0-0.7-0.2-1.4-0.5-2.1c-0.4-0.9-1-1.6-1.8-2.2c-0.6-0.4-1.2-0.7-1.9-0.8c-0.4-0.1-0.9-0.1-1.4-0.1c-2.8,0-5.5,0-8.3,0
			c-0.6,0-0.6,0-0.6-0.6c0-0.8,0-1.7,0-2.5c0-1-0.2-1.9-0.5-2.8c-0.3-0.7-0.7-1.4-1.3-2c-0.5-0.5-1-1-1.6-1.4
			c-0.7-0.4-1.5-0.8-2.4-0.9c-0.1,0-0.2,0-0.2,0c-0.2-0.2-0.5-0.1-0.8-0.1c-5.2,0-10.3,0-15.5,0c-0.7,0-1.4-0.1-2,0.1
			c-0.4,0.1-0.9,0.2-1.4,0.4c-1.4,0.6-2.5,1.5-3.3,2.7c-0.3,0.5-0.6,1-0.7,1.6c-0.2,0.6-0.3,1.3-0.3,1.9c0,1,0,2,0,3
			c0,0.6-0.1,0.6-0.7,0.7c-0.1,0-0.2,0-0.4,0c-2.6,0-5.2,0-7.8,0c-0.7,0-1.4,0-2,0.2c-0.4,0.1-0.8,0.3-1.1,0.5
			c-0.7,0.4-1.3,1-1.8,1.7C20.6,23,20.3,24,20.3,25c0,2.8,0,5.7,0,8.5c0,0.6-0.1,1.2,0.2,1.8c0.2,0.4,0.3,0.9,0.5,1.3
			c0.3,0.6,0.8,1.1,1.3,1.6c0.6,0.6,1.3,0.9,2.1,1.1c0.2,0,0.3,0.2,0.3,0.4c0,0.1,0,0.2,0,0.4C24.7,45.7,24.7,51.2,24.7,56.8z"/>
		<path fill="#A6A5A6" d="M24.7,56.8c0-5.6,0-11.2,0-16.8c0-0.1,0-0.2,0-0.4c0-0.2-0.1-0.3-0.3-0.4c-0.8-0.2-1.5-0.6-2.1-1.1
			c-0.5-0.5-1-0.9-1.3-1.6c-0.2-0.4-0.3-0.9-0.5-1.3c-0.2-0.6-0.2-1.2-0.2-1.8c0-2.8,0-5.7,0-8.5c0-1.1,0.3-2,0.9-2.9
			c0.5-0.7,1.1-1.3,1.8-1.7c0.4-0.2,0.7-0.3,1.1-0.5c0.7-0.2,1.3-0.2,2-0.2c2.6,0,5.2,0,7.8,0c0.1,0,0.2,0,0.4,0
			c0.6,0,0.7-0.1,0.7-0.7c0-1,0-2,0-3c0-0.7,0.1-1.3,0.3-1.9c0.2-0.6,0.4-1.1,0.7-1.6c0.8-1.2,1.9-2.2,3.3-2.7
			c0.4-0.2,0.9-0.2,1.4-0.4c0.7-0.2,1.4-0.1,2-0.1c5.2,0,10.3,0,15.5,0c0.3,0,0.6-0.1,0.8,0.1c0,0,0.1,0,0.2,0
			c0.9,0,1.7,0.4,2.4,0.9c0.6,0.4,1.1,0.8,1.6,1.4c0.6,0.6,1,1.3,1.3,2c0.4,0.9,0.6,1.9,0.5,2.8c0,0.8,0,1.7,0,2.5
			c0,0.6,0,0.6,0.6,0.6c2.8,0,5.5,0,8.3,0c0.5,0,1,0,1.4,0.1c0.7,0.2,1.3,0.4,1.9,0.8c0.8,0.6,1.4,1.3,1.8,2.2
			c0.3,0.7,0.5,1.3,0.5,2.1c0,3.1,0,6.3,0,9.4c0,1.3-0.5,2.4-1.3,3.3c-0.7,0.8-1.5,1.3-2.4,1.7c0,0-0.1,0-0.1,0
			c-0.5,0.1-0.5,0.1-0.5,0.7c0,7.3,0,14.6,0,21.9c0,3.8,0,7.6,0,11.5c0,0.3,0,0.7-0.1,1c0,0.1,0,0.1,0,0.2c0,0.7-0.3,1.4-0.5,2.1
			c-0.2,0.8-0.6,1.6-1.1,2.3c-0.6,1-1.3,2-2.3,2.7c-0.3,0.2-0.6,0.5-0.9,0.8c-0.7,0.5-1.4,1-2.2,1.3c-0.6,0.2-1.2,0.4-1.8,0.6
			c-1.2,0.4-2.5,0.4-3.7,0.4c-8.5,0-17,0-25.5,0c-0.9,0-1.9,0-2.8-0.2c-0.4-0.1-0.9-0.2-1.3-0.4c-0.7-0.2-1.3-0.4-1.9-0.8
			c-0.8-0.4-1.5-0.9-2.2-1.5c-0.3-0.3-0.6-0.5-0.8-0.8c-0.8-0.8-1.4-1.7-2-2.6c-0.4-0.8-0.8-1.6-1-2.4c-0.1-0.5-0.2-1.1-0.4-1.6
			c-0.3-1.1-0.1-2.2-0.1-3.3C24.7,66.5,24.7,61.6,24.7,56.8z M49.9,39.5c-6,0-12,0-18,0c-0.7,0-0.6-0.1-0.6,0.6
			c0,10.6,0,21.3,0,31.9c0,0.6-0.1,1.2,0.1,1.7c0.1,0.3,0.2,0.7,0.3,1c0.4,0.9,1,1.6,1.7,2.2c0.6,0.4,1.2,0.7,1.8,0.9
			c0.5,0.1,1.1,0.2,1.6,0.2c8.7,0,17.4,0,26,0c0.4,0,0.9-0.1,1.3-0.1c0.9-0.2,1.7-0.6,2.4-1.1c1.2-1,1.9-2.4,1.9-4
			c0-10.9,0-21.8,0-32.7c0-0.6,0-0.5-0.5-0.5c-0.1,0-0.1,0-0.2,0C61.9,39.5,55.9,39.5,49.9,39.5z M49.9,32.9c7.5,0,15,0,22.5,0
			c0.1,0,0.3,0,0.4,0c0.1,0,0.2-0.1,0.2-0.2c0-0.1,0-0.2,0-0.4c0-1.8,0-3.6,0-5.4c0-0.7,0.1-0.7-0.7-0.7c-14.9,0-29.9,0-44.8,0
			c-0.1,0-0.2,0-0.4,0c-0.2,0-0.2,0.1-0.2,0.2c0,0.1,0,0.2,0,0.3c0,1.9,0,3.7,0,5.6c0,0.6,0,0.6,0.5,0.6
			C34.9,32.9,42.4,32.9,49.9,32.9z M49.8,19.7c2.7,0,5.4,0,8.1,0c0.4,0,0.5-0.1,0.5-0.4c0-0.9,0-1.8,0-2.8c0-0.3-0.2-0.6-0.4-0.6
			c-0.1,0-0.3,0-0.4,0c-5.2,0-10.3,0-15.5,0c-0.1,0-0.2,0-0.3,0c-0.3,0-0.4,0.2-0.5,0.4c0,0.1,0,0.2,0,0.3c0,0.9,0,1.7,0,2.6
			c0,0.5,0,0.5,0.5,0.5C44.5,19.7,47.2,19.7,49.8,19.7z"/>
		<path fill="#EBEBEB" d="M49.9,39.5c6,0,12,0,18,0c0.1,0,0.1,0,0.2,0c0.5,0,0.5,0,0.5,0.5c0,10.9,0,21.8,0,32.7c0,1.6-0.7,3-1.9,4
			c-0.7,0.6-1.5,1-2.4,1.1c-0.4,0.1-0.9,0.1-1.3,0.1c-8.7,0-17.4,0-26,0c-0.5,0-1.1-0.1-1.6-0.2c-0.7-0.2-1.3-0.5-1.8-0.9
			c-0.8-0.6-1.3-1.3-1.7-2.2c-0.1-0.3-0.2-0.7-0.3-1c-0.2-0.6-0.1-1.2-0.1-1.7c0-10.6,0-21.3,0-31.9c0-0.7,0-0.6,0.6-0.6
			C37.9,39.5,43.9,39.5,49.9,39.5z M39.5,58.9c0,3.4,0,6.8,0,10.1c0,0.5,0.1,1,0.3,1.5c0.5,1,1.3,1.6,2.4,1.8
			c0.6,0.1,1.3,0.1,1.8-0.2c1.3-0.6,2-1.7,2-3.1c0-6.7,0-13.3,0-20c0-0.4,0-0.7-0.1-1.1c-0.2-0.8-0.6-1.4-1.3-1.8
			c-0.9-0.6-1.9-0.7-2.9-0.4c-1.3,0.4-2.2,1.6-2.2,3.1C39.5,52.1,39.5,55.5,39.5,58.9z M60.3,58.9c0-3.4,0-6.8,0-10.2
			c0-0.5-0.1-0.9-0.3-1.3c-0.7-1.3-1.9-2-3.4-1.9c-0.8,0.1-1.5,0.4-2,1c-0.6,0.6-0.9,1.4-0.9,2.3c0,6.7,0,13.4,0,20.1
			c0,0.7,0.2,1.4,0.6,2c0.5,0.8,1.2,1.2,2.1,1.4c0.6,0.1,1.2,0.1,1.8-0.2c1.1-0.5,2.1-1.6,2.1-3C60.3,65.7,60.3,62.3,60.3,58.9z"/>
		<path fill="#A6A5A6" d="M39.5,58.9c0-3.4,0-6.8,0-10.1c0-1.5,1-2.7,2.2-3.1c1-0.3,2-0.2,2.9,0.4c0.7,0.5,1.1,1.1,1.3,1.8
			c0.1,0.4,0.1,0.7,0.1,1.1c0,6.7,0,13.3,0,20c0,1.4-0.7,2.5-2,3.1c-0.6,0.3-1.2,0.3-1.8,0.2c-1-0.2-1.9-0.8-2.4-1.8
			c-0.2-0.5-0.3-0.9-0.3-1.5C39.5,65.6,39.5,62.2,39.5,58.9z"/>
		<path fill="#A6A5A6" d="M60.3,58.9c0,3.4,0,6.8,0,10.2c0,1.4-0.9,2.5-2.1,3c-0.6,0.2-1.2,0.3-1.8,0.2c-0.9-0.2-1.6-0.6-2.1-1.4
			c-0.4-0.6-0.6-1.3-0.6-2c0-6.7,0-13.4,0-20.1c0-0.9,0.3-1.6,0.9-2.3c0.5-0.6,1.2-0.9,2-1c1.5-0.1,2.7,0.6,3.4,1.9
			c0.2,0.4,0.3,0.9,0.3,1.3C60.3,52.1,60.3,55.5,60.3,58.9z"/>
	</g>
</g>
</svg>
