<?xml version="1.0" encoding="utf-8"?>
<!-- Generator: Adobe Illustrator 21.1.0, SVG Export Plug-In . SVG Version: 6.00 Build 0)  -->
<svg version="1.1" id="Layer_1" xmlns="http://www.w3.org/2000/svg" xmlns:xlink="http://www.w3.org/1999/xlink" x="0px" y="0px"
	 viewBox="0 0 100 50" style="enable-background:new 0 0 100 50;" xml:space="preserve">
<style type="text/css">
	.st0{fill:#A1C51C;}
	.st1{fill:#FFFFFF;}
	.st2{fill:#E52321;}
</style>
<title>41 all</title>
<g>
	<g>
		<path class="st0" d="M49.9,8L49.9,8c0.1-0.3-0.1-0.6-0.1-0.8c0-0.2-0.1-0.3-0.1-0.4c-0.1-0.3-0.2-0.5-0.3-0.7
			c-0.1-0.3-0.3-0.5-0.4-0.7c-0.2-0.4-0.5-0.7-0.7-1.1c-0.1-0.1-0.1-0.1-0.2-0.2C48.1,4,48,3.7,47.8,3.6c-0.5-0.3-0.8-0.7-1.3-1
			c-0.3-0.2-0.7-0.4-1-0.5c-0.3-0.2-0.6-0.3-0.9-0.4c-0.3-0.1-0.5-0.1-0.7-0.2c-0.1,0-0.2,0-0.3,0c-0.2,0-0.3,0.1-0.4-0.1
			c-0.1-0.1-0.2,0-0.3,0c-2.8,0-5.6,0-8.4,0c-9.2,0-18.4,0-27.6,0c-0.2,0-0.3-0.1-0.5,0.1c0,0-0.1,0-0.2,0C6.2,1.6,6,1.6,5.9,1.7
			c-0.3,0-0.4,0.2-0.7,0.2C5.1,1.9,4.9,2,4.7,2.1C4.2,2.2,3.8,2.4,3.5,2.6C3.3,2.8,3.1,2.9,2.9,3.1C2.7,3.2,2.5,3.4,2.3,3.5
			C2.1,3.6,2,3.7,2,3.8C1.9,4,1.7,4.1,1.6,4.3C1.2,4.7,1,5.2,0.8,5.7C0.6,6,0.5,6.3,0.4,6.7C0.3,6.9,0.2,7.1,0.2,7.4
			c0,0.2-0.1,0.4-0.1,0.6V8C0,8.2,0,8.4,0,8.7c0,10.9,0,21.9,0,32.8c0,0.2-0.1,0.3,0.1,0.4c0,0.1,0,0.2,0,0.2c0,0.2-0.1,0.3,0.1,0.4
			c0,0.1,0,0.1,0,0.1c0,0.3,0.1,0.5,0.2,0.7c0.1,0.2,0.2,0.5,0.2,0.7c0.1,0.3,0.2,0.5,0.3,0.7c0.3,0.4,0.6,0.9,0.9,1.3
			c0.2,0.3,0.5,0.5,0.7,0.8c0.6,0.5,1.2,0.9,1.9,1.2c0.3,0.1,0.5,0.2,0.8,0.3c0.3,0.1,0.6,0.2,0.9,0.3c0.2,0.1,0.4,0,0.5,0.1
			c0.1,0.1,0.1,0.1,0.1,0.1c12.3,0,24.6,0,36.9,0c0-0.1,0-0.1,0.2-0.2c0.1,0,0.2-0.1,0.4-0.1c0.2,0.1,0.4-0.1,0.6-0.1
			c0.2-0.1,0.4-0.1,0.5-0.2c0.1-0.1,0.2-0.1,0.2-0.1c0.5-0.2,0.9-0.4,1.3-0.6c0.4-0.2,0.8-0.5,1.1-0.8c0.3-0.3,0.6-0.7,0.9-1
			c0.1-0.1,0.2-0.3,0.3-0.4c0.3-0.4,0.5-0.8,0.7-1.2c0.1-0.2,0.2-0.5,0.3-0.7c0-0.1,0.1-0.2,0.1-0.3c0.1-0.2,0.1-0.4,0.2-0.6
			c0-0.1,0-0.1,0-0.2c0.1-0.2,0-0.4,0.1-0.5c0-0.1,0-0.2,0-0.2c0-1.1,0-2.2,0-3.3c0-10,0-20,0-29.9C50,8.2,50,8.1,49.9,8z"/>
		<g>
			<path class="st1" d="M17.1,35.2c0-0.1,0-0.1,0-0.2c0-1.7,0-3.4,0-5c0-1.4,0-3.2,0-5v0l0,0c0-0.1,0-0.9,0-1.5l0-1.5H13
				c-1.2,0-2.4,0-3.6,0h0c-1.1,0-2,0.6-2.5,1.5c0,0.1-0.1,0.2-0.1,0.2l0,0.1L6.7,24v11.3l0.2,0.3c0,0,0,0.1,0.1,0.1
				c0.1,0.2,0.2,0.4,0.4,0.6c0.5,0.6,1.1,0.9,1.9,0.9h1.3h2.2c1,0,1.9,0,2.9,0l1.5,0l0-1.5C17.1,35.6,17.1,35.3,17.1,35.2z M14.2,25
				c0,1.8,0,3.7,0,5c0,1.4,0,2.9,0,4.3c-1.2,0-2.4,0-3.6,0h-1v-9.5c1.1,0,2.3,0,3.4,0L14.2,25C14.2,24.9,14.2,25,14.2,25z"/>
			<path class="st1" d="M22.8,38.7c-1.1,0-2.2-0.3-3.2-0.9l-0.8-0.5l0-1c0-3.1,0-6.5,0-10.7c0-0.9,0-1.9,0-2.8V22l0.5-0.5
				c0.1-0.2,0.2-0.3,0.4-0.5c0.4-0.4,0.7-0.9,1-1.4c0.6-0.9,1.2-1.9,1.7-2.9c0.2-0.4,0.5-0.8,0.7-1.2c0,0,0,0,0,0c0-0.7,0-1.4-0.1-2
				c0-0.4,0-0.8,0-1.2c0-1.4,0.7-2.6,1.9-3.2c1.4-0.7,3-0.8,4.5-0.2c1,0.4,1.7,1.2,2.1,2.2c0.1,0.3,0.2,0.5,0.3,0.8
				c0.3,0.7,0.5,1.4,0.8,2.1c0.4,1.3,0.5,2.6,0.2,4.2c0,0.2-0.1,0.4-0.1,0.6h0c1.6,0,3.3,0,4.9,0c0.6,0,1.2,0.1,1.8,0.3
				c1.3,0.4,2.2,1.5,2.5,2.9l0,0c0,0,0,0.1,0,0.1c0,0,0,0.1,0,0.1l0.1,0.3v1.7l-0.2,0.2c-0.1,0.4-0.3,0.9-0.5,1.3
				c0.1,0.3,0.1,0.6,0.1,0.8c0,0.9-0.2,1.8-0.7,2.6c0,0.2,0.1,0.4,0.1,0.6c0.1,1-0.2,1.9-0.7,2.8c0.1,0.5,0.1,0.9,0,1.4
				c-0.2,2-1.4,3.6-3.4,4.3c-0.9,0.3-1.8,0.3-2.5,0.3h-3C28.5,38.7,25.6,38.7,22.8,38.7L22.8,38.7L22.8,38.7z M22.3,35.1
				c0.2,0,0.3,0,0.5,0c2.8,0,5.6,0,8.4,0h3c0.5,0,1,0,1.4-0.2c0.6-0.2,0.9-0.6,0.9-1.2c0-0.3,0-0.6-0.1-0.7c-0.3-0.8,0-1.5,0.3-2
				c0.4-0.5,0.4-0.8,0.4-1.1c0-0.1-0.1-0.3-0.1-0.4v0c-0.2-0.7-0.1-1.5,0.4-2c0.3-0.4,0.4-0.7,0.4-0.9c0-0.1,0-0.2-0.1-0.3
				c0-0.1-0.1-0.3-0.1-0.5c-0.2-0.9,0.1-1.5,0.4-1.8c0.1-0.1,0.3-0.3,0.3-0.7l0,0v0v-0.3c0,0,0-0.1,0-0.1l0,0
				c-0.1-0.3-0.2-0.4-0.3-0.4c-0.2-0.1-0.4-0.1-0.7-0.1c-1.6,0-3.3,0-4.9,0h-1.8c-0.3,0-1,0-1.6-0.7c-0.6-0.7-0.4-1.4-0.4-1.7
				c0-0.3,0.1-0.5,0.1-0.8c0.1-0.6,0.2-1.1,0.3-1.7c0.2-0.9,0.2-1.7-0.1-2.3c-0.2-0.7-0.5-1.3-0.7-2c-0.1-0.3-0.2-0.5-0.3-0.8
				c0,0,0-0.1-0.1-0.1c0,0,0,0,0,0c-0.6-0.2-1-0.2-1.5,0l0,0c0,0.4,0,0.8,0,1.1c0,0.6,0,1.3,0.1,1.9c0,0.7-0.1,1.4-0.5,1.9
				c-0.2,0.4-0.5,0.8-0.7,1.2c-0.6,1-1.1,2-1.8,3c-0.4,0.6-0.8,1.2-1.2,1.7l0,0.1c0,0.7,0,1.5,0,2.2C22.4,29.2,22.3,32.3,22.3,35.1z
				 M39.7,33.2L39.7,33.2L39.7,33.2z M40.3,29.8L40.3,29.8L40.3,29.8z M38.9,22.4L38.9,22.4z M23,15.6L23,15.6z"/>
		</g>
	</g>
	<g>
		<path class="st2" d="M99.9,8L99.9,8c0.1-0.3-0.1-0.6-0.1-0.8c0-0.2-0.1-0.3-0.1-0.4c-0.1-0.3-0.2-0.5-0.3-0.7
			c-0.1-0.3-0.3-0.5-0.4-0.7c-0.2-0.4-0.5-0.7-0.7-1.1c-0.1-0.1-0.1-0.1-0.2-0.2C98.1,4,98,3.7,97.8,3.6c-0.5-0.3-0.8-0.7-1.3-1
			c-0.3-0.2-0.7-0.4-1-0.5c-0.3-0.2-0.6-0.3-0.9-0.4c-0.3-0.1-0.5-0.1-0.7-0.2c-0.1,0-0.2,0-0.3,0c-0.2,0-0.3,0.1-0.4-0.1
			c-0.1-0.1-0.2,0-0.3,0c-2.8,0-5.6,0-8.4,0c-9.2,0-18.4,0-27.6,0c-0.2,0-0.3-0.1-0.5,0.1c0,0-0.1,0-0.2,0c-0.2,0.1-0.3,0-0.5,0.1
			c-0.3,0-0.4,0.2-0.7,0.2c-0.2,0.1-0.4,0.2-0.6,0.2c-0.5,0.2-0.9,0.4-1.2,0.6c-0.2,0.2-0.4,0.3-0.6,0.5c-0.2,0.2-0.4,0.3-0.6,0.5
			C52.1,3.6,52,3.7,52,3.8c-0.1,0.2-0.3,0.3-0.4,0.5c-0.4,0.4-0.7,0.9-0.9,1.4c-0.2,0.3-0.3,0.7-0.4,1c-0.1,0.3-0.2,0.5-0.2,0.7
			c0,0.2-0.1,0.4-0.1,0.6V8C50,8.2,50,8.4,50,8.7c0,10.9,0,21.9,0,32.8c0,0.2-0.1,0.3,0.1,0.4c0,0.1,0,0.2,0,0.2
			c0,0.2-0.1,0.3,0.1,0.4c0,0.1,0,0.1,0,0.1c0,0.3,0.1,0.5,0.2,0.7c0.1,0.2,0.2,0.5,0.2,0.7c0.1,0.3,0.2,0.5,0.3,0.7
			c0.3,0.4,0.6,0.9,0.9,1.3c0.2,0.3,0.5,0.5,0.7,0.8c0.6,0.5,1.2,0.9,1.9,1.2c0.3,0.1,0.5,0.2,0.8,0.3c0.3,0.1,0.6,0.2,0.9,0.3
			c0.2,0.1,0.4,0,0.5,0.1c0.1,0.1,0.1,0.1,0.1,0.1c12.3,0,24.6,0,36.9,0c0-0.1,0-0.1,0.2-0.2c0.1,0,0.2-0.1,0.4-0.1
			c0.2,0.1,0.4-0.1,0.6-0.1c0.2-0.1,0.4-0.1,0.5-0.2c0.1-0.1,0.2-0.1,0.2-0.1c0.5-0.2,0.9-0.4,1.3-0.6c0.4-0.2,0.8-0.5,1.1-0.8
			c0.3-0.3,0.6-0.7,0.9-1c0.1-0.1,0.2-0.3,0.3-0.4c0.3-0.4,0.5-0.8,0.7-1.2c0.1-0.2,0.2-0.5,0.3-0.7c0-0.1,0.1-0.2,0.1-0.3
			c0.1-0.2,0.1-0.4,0.2-0.6c0-0.1,0-0.1,0-0.2c0.1-0.2,0-0.4,0.1-0.5c0-0.1,0-0.2,0-0.2c0-1.1,0-2.2,0-3.3c0-10,0-20,0-29.9
			C100,8.2,100,8.1,99.9,8z"/>
		<path class="st1" d="M85.8,10.1c-1.8-1.3-3.9-2.3-6.1-2.9c-1.4-0.3-2.9-0.5-4.3-0.5c-7.2,0-13.8,4.5-16.5,11.2
			c-0.3,0.7-0.5,1.4-0.7,2.1c-1.2,4.5-0.5,9.3,2,13.4c2.4,4,6.3,6.9,10.8,8.1c1.4,0.4,2.9,0.6,4.3,0.6c8.1,0.1,15.2-5.5,17.1-13.3
			C94.3,21.7,91.6,14.4,85.8,10.1z M62.1,21.1c0.2-0.6,0.3-1.1,0.5-1.6c0.5-1.3,1.2-2.4,2-3.5l18.2,19.9c-3.1,2.1-7.2,2.8-10.9,1.8
			l0,0C64.7,35.8,60.3,28.3,62.1,21.1z M78.7,11.2c1.7,0.5,3.3,1.2,4.7,2.2c4.5,3.3,6.6,8.9,5.2,14.3c-0.5,2-1.4,3.8-2.7,5.3
			L67.6,13.1C70.9,11,75,10.2,78.7,11.2z"/>
	</g>
</g>
</svg>
