<?xml version="1.0" encoding="utf-8"?>
<!-- Generator: Adobe Illustrator 21.1.0, SVG Export Plug-In . SVG Version: 6.00 Build 0)  -->
<svg version="1.1" id="Layer_1" xmlns="http://www.w3.org/2000/svg" xmlns:xlink="http://www.w3.org/1999/xlink" x="0px" y="0px"
	 viewBox="0 0 100 94" style="enable-background:new 0 0 100 94;" xml:space="preserve">
<style type="text/css">
	.st0{fill:#A1C51C;}
	.st1{fill:#FFFFFF;}
</style>
<path class="st0" d="M99.6,13.5L99.6,13.5c0.1-0.6-0.2-1.1-0.2-1.6c0-0.3-0.1-0.6-0.2-0.8c-0.2-0.5-0.3-0.9-0.5-1.3
	c-0.2-0.5-0.5-0.9-0.7-1.4c-0.4-0.7-0.9-1.4-1.3-2.1c-0.1-0.1-0.2-0.2-0.3-0.3c-0.4-0.3-0.7-0.9-1.1-1.2c-0.9-0.6-1.6-1.4-2.5-1.9
	c-0.6-0.3-1.3-0.7-2-1c-0.6-0.3-1.2-0.5-1.8-0.7C88.5,1,88,1,87.6,0.8c-0.2,0-0.3,0-0.5,0c-0.3,0-0.5,0.1-0.7-0.1
	c-0.2-0.1-0.3,0-0.5,0c-5.6,0-11.1,0-16.7,0c-18.2,0-36.5,0-54.7,0c-0.3,0-0.6-0.1-0.9,0.1c0,0-0.2,0-0.3,0c-0.3,0.1-0.6,0-0.9,0.2
	c-0.5,0-0.8,0.3-1.3,0.4c-0.3,0.1-0.7,0.3-1.1,0.4C9.1,2.1,8.3,2.5,7.6,2.9C7.2,3.2,6.8,3.5,6.4,3.8S5.7,4.4,5.3,4.7
	C5,4.9,4.8,5.1,4.7,5.3C4.6,5.7,4.2,5.9,4,6.2C3.2,7,2.7,8,2.3,8.9c-0.3,0.6-0.6,1.3-0.8,2c-0.2,0.5-0.3,0.9-0.4,1.4
	C1.1,12.7,1,13,1,13.4v0.1c-0.3,0.5-0.2,0.9-0.2,1.4c0,21.6,0,43.3,0,64.9c0,0.3-0.1,0.5,0.1,0.8c0,0.1,0,0.3,0,0.4
	c0,0.3-0.1,0.6,0.1,0.8c0,0.1,0,0.1,0,0.2c0,0.5,0.2,1,0.4,1.4c0.1,0.4,0.3,0.9,0.4,1.3C2,85.2,2.2,85.6,2.4,86
	c0.6,0.8,1.1,1.7,1.8,2.5c0.4,0.5,0.9,1,1.4,1.5c1.1,0.9,2.3,1.8,3.7,2.4c0.5,0.2,1,0.3,1.5,0.5c0.6,0.2,1.2,0.3,1.7,0.5
	c0.3,0.1,0.7,0,1,0.1c0.1,0.1,0.2,0.1,0.2,0.2c24.4,0,48.7,0,73,0c0-0.1,0-0.2,0.3-0.3c0.2,0,0.4-0.1,0.7-0.1
	c0.4,0.1,0.7-0.1,1.1-0.2s0.7-0.1,1-0.3c0.1-0.1,0.3-0.2,0.4-0.2c0.9-0.3,1.7-0.7,2.5-1.2c0.8-0.4,1.5-1,2.2-1.6
	c0.6-0.6,1.2-1.3,1.8-1.9c0.2-0.2,0.3-0.5,0.5-0.8c0.5-0.7,0.9-1.5,1.3-2.3c0.2-0.4,0.4-0.9,0.5-1.4c0-0.2,0.1-0.3,0.2-0.5
	c0.2-0.4,0.1-0.8,0.3-1.2c0-0.1,0-0.2,0-0.3c0.1-0.4,0-0.7,0.2-1c0-0.1,0-0.3,0-0.4c0-2.2,0-4.3,0-6.5c0-19.7,0-39.5,0-59.2
	C99.7,14,99.8,13.7,99.6,13.5z"/>
<title>41 all</title>
<g>
	<path class="st1" d="M34.6,67.4c0-0.1,0-0.3,0-0.3c0-3.3,0-6.7,0-10c0-2.7,0-6.3,0-10v0l0,0c0-0.2,0-1.9,0-3l0.1-3h-8.2
		c-2.4,0-4.8,0-7.1,0h0c-2.2,0-4,1.1-4.9,3c-0.1,0.2-0.1,0.3-0.2,0.5l-0.1,0.1L14,45.3v22.4l0.4,0.7c0,0,0.1,0.1,0.1,0.2
		c0.2,0.4,0.5,0.8,0.8,1.2c0.9,1.1,2.3,1.7,3.8,1.7h2.7H26c1.9,0,3.8,0,5.7,0l2.9,0l0-2.9C34.6,68.1,34.6,67.6,34.6,67.4z
		 M28.8,47.1c0,3.7,0,7.2,0,10c0,2.8,0,5.7,0,8.6c-2.4,0-4.8,0-7.1,0h-1.9V46.9c2.2,0,4.5,0,6.7,0h2.3
		C28.8,46.9,28.8,47.1,28.8,47.1z"/>
	<path class="st1" d="M45.8,74.3c-2.2,0-4.4-0.6-6.3-1.8l-1.7-1l0-2c0-6.2,0.1-12.9,0.1-21.2c0-1.9,0-3.7,0-5.6v-1.4l0.9-1
		c0.2-0.3,0.5-0.6,0.7-0.9c0.7-0.9,1.4-1.7,2-2.7c1.2-1.9,2.3-3.8,3.4-5.7c0.5-0.8,0.9-1.6,1.4-2.4c0,0,0,0,0,0
		c-0.1-1.3-0.1-2.7-0.1-4c0-0.8,0-1.5-0.1-2.3c-0.1-2.7,1.3-5.1,3.8-6.4c2.8-1.5,5.9-1.6,9-0.3c1.9,0.8,3.3,2.3,4.1,4.3
		c0.2,0.5,0.4,1,0.6,1.5c0.5,1.4,1.1,2.8,1.6,4.2c0.9,2.5,1,5.2,0.4,8.3c-0.1,0.4-0.1,0.8-0.2,1.2h0c3.2,0,6.5,0,9.7,0
		c1.2,0,2.4,0.2,3.6,0.6c2.5,0.9,4.3,2.9,5,5.7l0,0c0,0,0,0.1,0.1,0.2c0,0.1,0,0.1,0.1,0.2l0.2,0.5v3.4l-0.3,0.5
		c-0.2,0.9-0.6,1.7-1.1,2.5c0.1,0.5,0.2,1.1,0.2,1.6c0.1,1.8-0.4,3.6-1.4,5.1c0.1,0.4,0.2,0.8,0.2,1.3c0.1,1.9-0.3,3.8-1.4,5.6
		c0.1,0.9,0.2,1.9,0.1,2.8c-0.3,4-2.8,7.2-6.7,8.5c-1.8,0.6-3.5,0.7-5,0.7h-6C57.1,74.2,51.4,74.2,45.8,74.3L45.8,74.3L45.8,74.3z
		 M44.9,67.1c0.3,0,0.6,0.1,0.9,0.1c5.5,0,11.2,0,16.6,0h6c0.9,0,1.9,0,2.8-0.3c1.2-0.4,1.8-1.1,1.9-2.3c0-0.6,0-1.1-0.1-1.4
		c-0.6-1.5,0-3,0.6-3.9c0.7-1,0.8-1.6,0.8-2.1c-0.1-0.3-0.1-0.6-0.2-0.9v0c-0.5-1.4-0.2-2.9,0.7-4c0.7-0.8,0.7-1.4,0.7-1.8
		c0-0.1-0.1-0.4-0.1-0.6c-0.1-0.3-0.1-0.6-0.2-1c-0.3-1.7,0.3-2.9,0.9-3.5c0.2-0.2,0.5-0.6,0.7-1.5l0-0.1v0v-0.5
		c0-0.1,0-0.1-0.1-0.2l0,0c-0.2-0.7-0.4-0.8-0.5-0.8c-0.4-0.1-0.9-0.2-1.3-0.2c-3.2,0-6.5,0-9.6,0h-3.6c-0.5,0-2.1,0-3.2-1.3
		c-1.1-1.3-0.9-2.9-0.8-3.4c0.1-0.5,0.2-1,0.3-1.6c0.2-1.1,0.4-2.2,0.6-3.4c0.4-1.9,0.3-3.3-0.1-4.6c-0.5-1.3-1-2.6-1.5-4
		c-0.2-0.5-0.4-1-0.6-1.5c0-0.1-0.1-0.2-0.1-0.2c0,0-0.1,0-0.1,0c-1.1-0.5-2-0.5-3,0.1l0,0c0,0.8,0,1.5,0.1,2.3
		c0,1.3,0.1,2.6,0.1,3.8c0.1,1.3-0.3,2.7-0.9,3.8c-0.5,0.8-0.9,1.6-1.4,2.4c-1.1,1.9-2.3,4-3.5,5.9c-0.8,1.2-1.6,2.3-2.5,3.4
		L45,43.8c0,1.5,0,2.9,0,4.4C45,55.5,45,61.6,44.9,67.1z M79.3,63.5L79.3,63.5L79.3,63.5z M80.4,56.6L80.4,56.6L80.4,56.6z
		 M77.7,42.1L77.7,42.1z M46.3,28.6L46.3,28.6z"/>
</g>
</svg>
