<?xml version="1.0" encoding="utf-8"?>
<!-- Generator: Adobe Illustrator 21.1.0, SVG Export Plug-In . SVG Version: 6.00 Build 0)  -->
<svg version="1.0" id="Layer_5_xA0_Image_1_" xmlns="http://www.w3.org/2000/svg" xmlns:xlink="http://www.w3.org/1999/xlink"
	 x="0px" y="0px" viewBox="0 0 524 570" enable-background="new 0 0 524 570" xml:space="preserve">
<g>
	<g>
		<path fill="#B6E416" d="M514.4,300.9c-5.8-22.2-25.1-37.6-48-37.9c-7.4-0.1-14.9-0.2-22.3,0c-3.7,0.1-4.9-0.9-4.9-4.8
			c0.1-42.8,0-85.5,0-128.3c0-23.9,0-47.8,0-71.6c0-25.5-13.4-42.5-38.4-48.7c-0.4-0.1-0.8-0.5-1.2-0.7c-81.7,0-163.4,0-245.1,0
			c-2.6,1.9-5.7,1.7-8.6,2.4c-20.7,5.3-39,14.9-54,30.5c-17.1,17.8-34.5,35.3-52,52.7c-15.9,15.7-25.1,34.8-29.9,56.4
			c-0.4,1.8-0.1,3.9-1.7,5.3c0,121.4,0,242.9,0,364.3c0.6,2.4,1.2,4.9,1.9,7.3c5.7,17.5,17.5,28.3,35.5,32.4
			c1.1,0.2,2.2,0.6,3.2,0.9c116.9,0,233.8,0,350.7,0c1.5-1.4,3.6-1.2,5.5-1.7c19.9-5.7,33.6-23.2,34.1-43.8c0.1-3.4,0.5-6.8,0-10.1
			c-0.6-4.9,1.5-5.9,5.9-5.7c8.5,0.3,17.1,0.5,25.6-0.4c22.7-2.5,38.7-17.1,44-39.4c0.2-0.9,0.1-2,1.1-2.6c0-50.4,0-100.8,0-151.1
			C514.4,304.8,514.8,302.7,514.4,300.9z M62.1,106.7c12.9-13.6,25.8-27.1,38.8-40.5c3.6-3.7,7.6-8.1,13.3-5.6
			c5.4,2.4,5,8.1,5.2,13.1c0.1,4.7,0,9.3,0,14c-0.3,0-0.5,0-0.8,0c0,5,0.1,10,0,15c-0.4,14.3-10.8,24.5-25.1,24.5
			c-7.7,0-15.5-0.1-23.2-0.4c-5.2-0.2-10.8-0.6-13.1-6.4C54.9,114.7,58.5,110.5,62.1,106.7z M417.3,519c-2.3,11.9-11.9,20.3-24,20.8
			c-1.5,0.1-2.9,0-4.4,0c-110.1,0-220.2,0-330.3,0c-19.4,0-29.1-9.7-29.1-29.2c0-57.2,0-114.3,0-171.5c0-57,0-114,0-171
			c0-4.9,0.3-9.7,1.7-14.4c0.9-3.3,2.9-5.3,6.4-5.7c2.6-0.3,5.1-0.6,7.7-0.6c18.9,0,37.8,0,56.7,0c24.1-0.1,40.8-16.7,40.9-40.7
			c0.1-16.6,0-33.3,0-49.9c0-5.2,0.9-10.3,2.6-15.2c2.3-6.3,6.5-10.3,13.4-10.9c2.7-0.3,5.5-0.5,8.2-0.5c74.1,0,148.2,0,222.3,0
			c18.3,0,28.3,10,28.3,28.5c0,50.4,0.2,100.7-0.1,151.1c-0.1,16.1,0.6,32.3-0.1,48.4c-0.2,4.2-1.6,4.6-5.1,4.6
			c-51.5-0.1-103-0.1-154.5-0.1c-43.1,0-86.2-0.1-129.3,0c-25.5,0.1-45.7,16.6-50.3,41c-0.7,3.8-0.8,7.7-0.8,11.6
			c0,44.1,0.5,88.2-0.2,132.2c-0.4,27.8,21.3,52.4,52.7,52.3c93.6-0.4,187.3-0.1,280.9-0.1c6.5,0,6.6,0,6.5,6.5
			C417.5,510.6,418.1,514.8,417.3,519z M329.1,408.6c-0.3-5.1-3.4-8.2-7.9-10.1c-9.6-3.9-19.9-5.2-29.9-7.9
			c-4.8-1.3-9.7-2.4-14.4-4.1c-23.2-8.6-29.8-37.6-12.8-55.8c4-4.3,8.8-7.7,14.4-9.5c15-4.8,30.3-5.4,45.2-0.2
			c15,5.2,23.5,16.3,26,32.1c0.5,2.9-0.2,4.3-3.4,4.1c-3.1-0.2-6.1,0-9.2,0c-1,0-2-0.1-2.9,0c-5.7,0.9-10.1-0.1-10.7-7
			c-0.1-0.9-0.8-1.7-1.4-2.5c-7-10.5-31.8-12.1-40.1-2.6c-6.2,7.1-2.9,17.6,6.6,20.2c10.6,2.9,21.3,5.3,31.9,8
			c3.3,0.8,6.6,1.7,9.8,2.8c19.7,6.8,27.5,21.6,22.3,41.8c-3,11.8-10.8,19.4-21.6,23.8c-18.7,7.6-37.7,7-56.1-0.8
			c-13.1-5.6-19.8-16.5-21.5-30.5c-0.4-3.4,0.3-5.1,4.2-4.8c5.5,0.3,11,0.2,16.5,0c2.6-0.1,3.7,0.9,4.1,3.4c1.2,8.1,6.5,12.7,14,15
			c8.8,2.6,17.5,2.1,26.2-0.5c1.7-0.5,3.3-1.4,4.8-2.3C327.6,418.1,329.4,413.9,329.1,408.6z M134.3,404.6
			c5.8,15.5,18.3,22.4,34.1,19c10.1-2.1,15.9-8.9,18.7-18.3c1-3.3,2.5-4.2,5.7-4.1c5.5,0.3,11,0.3,16.5,0c3.8-0.2,4.7,0.9,3.8,4.6
			c-6.2,26.8-30,43.6-57.7,40.5c-29.5-3.2-48-22.9-50.2-53.8c-1-14.6-0.5-29.1,5.6-42.7c9.2-20.3,24.7-31.2,47.1-32.1
			c16.8-0.7,32,3.2,44,16c6.1,6.6,9.8,14.3,11.5,23.1c0.6,2.8,0,4.3-3.3,4.1c-3.1-0.2-6.1,0-9.2,0c-0.8,0-1.6-0.1-2.4,0
			c-6.4,0.9-10.2-0.5-13.3-7.7c-7.3-16.9-33.3-18.4-45.2-3.4c-4.6,5.8-7.2,12.6-8.2,19.9C130.1,381.5,130.1,393.2,134.3,404.6z
			 M487.8,325.6c-10.6,30.8-21,61.6-31.5,92.4c-2.4,7.2-5,14.3-7.3,21.5c-0.9,2.8-2.3,3.7-5.2,3.6c-5.6-0.2-11.3-0.2-16.9,0
			c-2.8,0.1-3.9-1-4.8-3.5c-12.9-38.4-25.8-76.7-38.8-115c-1.1-3.4-0.3-4,3-3.9c6,0.2,12,0.4,17.9-0.1c4.6-0.4,6,1.7,7.1,5.6
			c7.6,27.5,15.4,54.9,23.2,82.4c0.3,1.2,0.8,2.4,1.6,5c4.8-16.8,9.3-32.2,13.8-47.7c3.9-13.6,7.9-27.2,11.7-40.9
			c0.9-3.4,2.5-4.6,6-4.4c5.6,0.3,11.3,0.3,16.9,0C488.6,320.5,489.1,321.7,487.8,325.6z"/>
		<path fill="#B6E416" d="M199.4,142.1c4.6,1.4,8.6,0.3,12-3.1c11.8-11.9,23.7-23.8,35.6-35.6c1.2-1.1,2.1-2.8,4.4-3.1
			c0,14.6,0,28.7,0,42.9c0,27.9,0,55.8,0,83.7c0,6.7,4.4,11.4,10.5,11.5c6,0.1,10.6-4.7,10.9-11.3c0.1-1.4,0-2.9,0-4.4
			c0-39.1,0-78.1,0-117.2c0-1.7-0.5-3.5,0.5-5.2c1.9,0.5,2.8,2.1,4,3.3c11.8,11.7,23.5,23.5,35.3,35.2c4.7,4.7,11.3,4.9,15.6,0.8
			c4.2-4.1,4.4-10.9-0.3-15.6c-19.3-19.5-38.7-38.9-58.2-58.2c-4.7-4.7-10.8-4.6-15.6,0.1c-19.5,19.5-39,39.1-58.4,58.7
			c-2.7,2.7-3.7,6-2.9,9.8C193.6,138.1,195.7,140.9,199.4,142.1z"/>
	</g>
</g>
</svg>
