<?xml version="1.0" encoding="utf-8"?>
<!-- Generator: Adobe Illustrator 21.1.0, SVG Export Plug-In . SVG Version: 6.00 Build 0)  -->
<svg version="1.1"
	 id="Layer_1" xmlns:cc="http://creativecommons.org/ns#" xmlns:dc="http://purl.org/dc/elements/1.1/" xmlns:inkscape="http://www.inkscape.org/namespaces/inkscape" xmlns:rdf="http://www.w3.org/1999/02/22-rdf-syntax-ns#" xmlns:sodipodi="http://sodipodi.sourceforge.net/DTD/sodipodi-0.dtd" xmlns:svg="http://www.w3.org/2000/svg"
	 xmlns="http://www.w3.org/2000/svg" xmlns:xlink="http://www.w3.org/1999/xlink" x="0px" y="0px" viewBox="0 0 100 75.9"
	 style="enable-background:new 0 0 100 75.9;" xml:space="preserve">
<style type="text/css">
	.st0{fill:#FFFFFF;}
</style>
<g>
	<path class="st0" d="M66.3,20.5c-4.7-4.4-10.8-6.6-17.3-6.2C37.1,15,27.7,24.9,27.3,36.7c-0.3,8.6,4.2,16.6,11.8,20.9l0,0v13.6h3.3
		v2.4h12.9h3.2v-2.4h3.2V57.6l0,0c7.3-4.1,11.8-11.8,11.8-20.2C73.5,31,70.9,24.8,66.3,20.5z M55.3,65.2c-1,0.4-1.8,1.1-2.3,1.9h-5
		c-0.6-0.9-1.4-1.5-2.3-1.9v-1.3h9.7C55.3,63.9,55.3,65.2,55.3,65.2z M58.5,52c-1.9,1.1-3.2,3.3-3.2,5.4h-9.7c0-2.1-1.4-4.4-3.2-5.4
		c-5.5-3.1-8.7-8.8-8.6-15.1c0.2-8.5,7.1-15.6,15.6-16.1c4.7-0.3,9.1,1.3,12.5,4.5c3.4,3.2,5.3,7.5,5.3,12.1
		C67.1,43.4,63.8,49,58.5,52z"/>
	<path class="st0" d="M36.7,38h6.5c0-3.6,2.4-7.3,6.5-7.3v-6.5C42.3,24.2,36.7,30.3,36.7,38z"/>
	<rect x="78.7" y="34.8" class="st0" width="7.3" height="6.5"/>
	<rect x="14" y="34.8" class="st0" width="8.1" height="6.5"/>
	<rect x="47.2" y="2.4" class="st0" width="6.5" height="7.3"/>
	<rect x="68.9" y="12.5" transform="matrix(0.7072 -0.707 0.707 0.7072 10.2083 56.0982)" class="st0" width="7.9" height="6.5"/>
	<rect x="24.1" y="57.2" transform="matrix(0.7072 -0.707 0.707 0.7072 -34.4969 37.52)" class="st0" width="7.9" height="6.5"/>
	<rect x="24.9" y="11.8" transform="matrix(0.7071 -0.7071 0.7071 0.7071 -2.8934 24.4773)" class="st0" width="6.5" height="7.9"/>
	
		<rect x="69.5" y="56.4" transform="matrix(0.7071 -0.7071 0.7071 0.7071 -21.3882 69.1566)" class="st0" width="6.5" height="7.9"/>
</g>
</svg>
