<?xml version="1.0" encoding="utf-8"?>
<!-- Generator: Adobe Illustrator 22.1.0, SVG Export Plug-In . SVG Version: 6.00 Build 0)  -->
<svg version="1.1" id="Layer_1" xmlns="http://www.w3.org/2000/svg" xmlns:xlink="http://www.w3.org/1999/xlink" x="0px" y="0px"
	 viewBox="0 0 1344 274" style="enable-background:new 0 0 1344 274;" xml:space="preserve">
<style type="text/css">
	.st0{clip-path:url(#SVGID_2_);}
	.st1{clip-path:url(#SVGID_4_);}
	.st2{fill:#FFFFFF;}
</style>
<g>
	<g>
		<defs>
			<path id="SVGID_1_" d="M178.8,28.5C118.9,28.5,70.3,77.1,70.3,137c0,33.9,15.5,64.2,39.9,84c5.2,4.3,10.8,8,16.7,11.3
				c15.4,8.4,33.1,13.2,51.9,13.2s36.5-4.8,51.9-13.2c5.9-3.2,11.5-7,16.7-11.3c24.3-19.9,39.9-50.2,39.9-84
				C287.3,77.1,238.7,28.5,178.8,28.5L178.8,28.5z M178.8,227.2c-18,0-34.8-5.3-48.9-14.4c7.1-24.7,26.3-42.5,48.9-42.5
				s41.8,17.7,48.9,42.5C213.6,221.9,196.8,227.2,178.8,227.2L178.8,227.2z M159.3,130.7c0-10.7,8.7-19.5,19.5-19.5
				c10.7,0,19.5,8.7,19.5,19.5c0,9.6-7,17.6-16.1,19.2c-1.1,0.2-2.2,0.3-3.3,0.3s-2.3-0.1-3.3-0.3
				C166.3,148.3,159.3,140.3,159.3,130.7L159.3,130.7z M242.5,200.9c-7.3-20.2-20.7-36.4-37.4-44.8c6.4-6.6,10.3-15.5,10.3-25.4
				c0-20.2-16.4-36.6-36.6-36.6s-36.6,16.4-36.6,36.6c0,9.9,3.9,18.8,10.3,25.4c-16.7,8.4-30.2,24.5-37.4,44.8
				C98.7,184.6,88.6,162,88.6,137c0-49.8,40.4-90.2,90.2-90.2S269,87.2,269,137C269,162,258.9,184.5,242.5,200.9L242.5,200.9z"/>
		</defs>
		<clipPath id="SVGID_2_">
			<use xlink:href="#SVGID_1_"  style="overflow:visible;"/>
		</clipPath>
		<g class="st0">
			
				<image style="overflow:visible;enable-background:new    ;" width="1276" height="264" xlink:href="C4255717D9EAAC62.jpg"  transform="matrix(1 0 0 1 41.3 4.5)">
			</image>
		</g>
	</g>
</g>
<g>
	<g>
		<defs>
			<path id="SVGID_3_" d="M449.2,185.4v-64c0-13.4-6.1-20.1-18.3-20.1c-3.6,0-7.1,1-10.4,3.1c-3.4,2.1-5.7,4.5-7.1,7.2v73.7h-24.1
				v-67.7c0-5-1.6-9-4.7-12c-3.2-3-7.6-4.4-13.3-4.4c-3,0-6.3,1.1-9.9,3.3c-3.6,2.2-6.2,4.7-7.8,7.3v73.4h-24.2V83.3H346l4.9,9
				c6.7-7.2,15.4-10.9,26-10.9c13.7,0,24.1,3.7,31,11.1c3-3.4,7.2-6.1,12.7-8.1c5.4-2,10.8-3,16.2-3c11.5,0,20.5,3.3,26.9,9.8
				s9.6,15.5,9.6,26.8v67.4H449.2L449.2,185.4z M579.2,172.4c-9.3,9.9-22,14.9-38,14.9c-9.6,0-17.8-2.5-24.7-7.5l-5.4,7.5h-13.6
				v-142l24.2-5.7v47.7c6.4-3.9,13.5-5.8,21.1-5.8c15.1,0,27.3,4.7,36.6,14.2c9.3,9.4,13.9,21.5,13.9,36.3
				C593.2,148.9,588.6,162.4,579.2,172.4L579.2,172.4z M538,101.6c-7.2,0-12.6,2-16.3,6v53.3c3.5,4.1,8.3,6.2,14.4,6.2
				c11.7,0,19.9-2.7,24.8-8.2c4.9-5.5,7.3-14.2,7.3-26.2C568.1,112,558.1,101.6,538,101.6L538,101.6z M674.3,105.5
				c-4.3-2.8-9-4.2-14.2-4.2c-5.6,0-10.6,2.5-14.9,7.5c-4.3,5-6.5,11.2-6.5,18.4v58.1h-24.2v-102h24.2v9.3
				c6.8-7.5,15.7-11.2,27-11.2c8.2,0,14.6,1.2,18.9,3.7L674.3,105.5L674.3,105.5z M709.1,185.1c-3.4,3.4-7.5,5.1-12.3,5.1
				s-8.9-1.7-12.3-5.1c-3.4-3.4-5.1-7.4-5.1-12.2s1.7-8.8,5.1-12.2c3.4-3.3,7.5-5,12.3-5s8.9,1.7,12.3,5s5.1,7.4,5.1,12.2
				C714.2,177.7,712.5,181.8,709.1,185.1L709.1,185.1z M813.9,185.3v-7.5c-6.4,6.3-15.7,9.4-27.8,9.4c-12.9,0-23.4-4.6-31.5-13.7
				c-8.1-9.2-12.1-21.4-12.1-36.6c0-15.3,4.6-28.4,13.9-39.2c9.3-10.8,20.3-16.3,33.1-16.3c10.7,0,18.8,2.5,24.3,7.4V41.5h18.5
				v143.8H813.9L813.9,185.3z M813.9,107c-4.6-6.9-11-10.3-19-10.3c-9.9,0-17.8,3.6-23.9,10.9c-6.1,7.2-9.1,16.5-9.1,27.6
				c0,24.6,11.3,36.9,34,36.9c2.9,0,6.4-0.9,10.4-2.7c4.1-1.8,6.6-3.7,7.6-5.8V107L813.9,107z M885.6,63.8c-2.2,2.2-4.9,3.3-8.1,3.3
				c-3.1,0-5.8-1.1-8-3.3c-2.2-2.2-3.3-4.8-3.3-8c0-3.1,1.1-5.8,3.3-7.9c2.2-2.2,4.9-3.2,8-3.2c3.2,0,5.8,1.1,8.1,3.3
				c2.2,2.2,3.3,4.8,3.3,7.9C888.9,59,887.8,61.6,885.6,63.8L885.6,63.8z M885.8,185.4h-18.4V98.6h-14.1V83.3h32.6L885.8,185.4
				L885.8,185.4z M990,119.7c0,10.3-3.3,18.9-9.8,25.9s-15,11-25.6,12l-15.2,1.5c-1.8,0.2-4.2,0.9-7.2,2c-3,1.2-4.5,2.7-4.5,4.6
				c0,2.6,3.2,3.9,9.5,3.9c2.8,0,7.1-0.5,12.9-1.5c5.9-1,10.2-1.5,13-1.5c10.2,0,18.1,2.4,23.8,7.2s8.5,11.5,8.5,20
				c0,9.4-4.3,17-12.8,22.8s-19.3,8.7-32.4,8.7c-6.7,0-13.8-1.2-21.2-3.5c-7.4-2.4-13.4-5.2-17.9-8.6l10-14.5
				c10.7,7.1,20.5,10.6,29.6,10.6c8.3,0,14.9-1.4,19.7-4.2s7.2-6.3,7.2-10.5c0-8.3-6.1-12.4-18.2-12.4c-2.1,0-5.8,0.5-11.2,1.5
				s-9.6,1.5-12.7,1.5c-14.7,0-22-5.5-22-16.4c0-3.4,1.7-6.4,5.2-9.2c3.4-2.7,7.7-4.7,12.8-5.9c-14.6-6.7-21.8-18.4-21.8-35.1
				c0-10.7,3.8-19.6,11.3-26.7s16.8-10.7,27.9-10.7c10.2,0,18.1,2.1,23.9,6.2l9.2-10.9l12,11.2l-11,8.2
				C987.6,102.1,990,110,990,119.7L990,119.7z M965,102.7c-4-4.4-8.9-6.7-14.8-6.7c-6.4,0-11.6,2.2-15.6,6.7c-4,4.4-6,9.8-6,16.2
				c0,7.1,1.9,13,5.8,17.7c3.9,4.7,9.2,7,15.8,7c6.5,0,11.6-2.3,15.3-6.8s5.5-10.5,5.5-17.9C971,112.5,969,107.1,965,102.7
				L965,102.7z M1041.3,63.8c-2.2,2.2-4.9,3.3-8.1,3.3c-3.1,0-5.8-1.1-8-3.3c-2.2-2.2-3.3-4.8-3.3-8c0-3.1,1.1-5.8,3.3-7.9
				c2.2-2.2,4.9-3.2,8-3.2c3.2,0,5.8,1.1,8.1,3.3c2.2,2.2,3.3,4.8,3.3,7.9C1044.7,59,1043.6,61.6,1041.3,63.8L1041.3,63.8z
				 M1041.6,185.4h-18.4V98.6H1009V83.3h32.6L1041.6,185.4L1041.6,185.4z M1100.1,166.6c2.9,3.6,7.7,5.4,14.2,5.4
				c4.7,0,9.6-1.2,14.6-3.5l2.7,15.9c-7.6,1.9-15.9,2.9-25,2.9c-8.2,0-15.1-3-20.7-9c-5.6-6-8.5-13.6-8.5-22.7v-58h-12V83.3h12V62
				l18.4-7v28.3h28.4v14.3h-28.4v50.7C1095.7,156.9,1097.2,163,1100.1,166.6L1100.1,166.6z M1215.7,184.1c-3.7-2.1-6.4-5.6-8-10.4
				c-7.3,9.1-18.6,13.6-33.7,13.6c-8.1,0-15.2-2.9-21.1-8.7c-6-5.8-8.9-13-8.9-21.7c0-10.4,4.6-19.1,13.8-26.3s20.9-10.7,35.1-10.7
				c3.9,0,8.2,0.8,13.1,2.5c0-16.5-7.5-24.8-22.4-24.8c-11.5,0-20.3,3.1-26.5,9.2l-7.7-15.2c3.5-2.8,8.3-5.2,14.4-7.2
				c6.2-2,12-3,17.6-3c15,0,25.9,3.4,32.7,10.1s10.2,17.4,10.2,32.1v36.6c0,9,2.7,14.9,8.1,17.9v9.1
				C1224.9,187.2,1219.4,186.2,1215.7,184.1L1215.7,184.1z M1205.9,135.3c-5.8-1.3-9.9-1.9-12.2-1.9c-9.3,0-16.8,2.4-22.7,7.1
				c-5.9,4.7-8.8,10.3-8.8,16.7c0,10.6,6.3,15.9,19,15.9c9.3,0,17.5-4.4,24.6-13.1L1205.9,135.3L1205.9,135.3z M1254.6,156.5v-115
				h18.4v112c0,5.5,1.6,9.8,4.8,12.9c3.2,3.1,7.4,4.7,12.5,4.7v16.2C1266.5,187.3,1254.6,177,1254.6,156.5L1254.6,156.5z"/>
		</defs>
		<clipPath id="SVGID_4_">
			<use xlink:href="#SVGID_3_"  style="overflow:visible;"/>
		</clipPath>
		<g class="st1">
			
				<image style="overflow:visible;enable-background:new    ;" width="1276" height="264" xlink:href="C4255717D9EAAC66.jpg"  transform="matrix(1 0 0 1 41.3 4.5)">
			</image>
			<rect x="309.3" y="20.4" class="st2" width="1000" height="225.1"/>
		</g>
	</g>
</g>
</svg>
