<?xml version="1.0" encoding="utf-8"?>
<!-- Generator: Adobe Illustrator 19.0.0, SVG Export Plug-In . SVG Version: 6.00 Build 0)  -->
<svg version="1.1" id="Layer_1" xmlns="http://www.w3.org/2000/svg" xmlns:xlink="http://www.w3.org/1999/xlink" x="0px" y="0px"
	 viewBox="366 260 1344 274" style="enable-background:new 366 260 1344 274;" xml:space="preserve">
<g>
	<defs>
		<path id="SVGID_1_" d="M791.9,454.9v-64c0-13.4-6.1-20.1-18.3-20.1c-3.6,0-7.1,1-10.4,3.1c-3.4,2.1-5.7,4.5-7.1,7.2v73.7H732
			v-67.7c0-5-1.6-9-4.7-12c-3.2-3-7.6-4.4-13.3-4.4c-3,0-6.3,1.1-9.9,3.3c-3.6,2.2-6.2,4.7-7.8,7.3v73.4h-24.2V352.8h16.6l4.9,9
			c6.7-7.2,15.4-10.9,26-10.9c13.7,0,24.1,3.7,31,11.1c3-3.4,7.2-6.1,12.7-8.1c5.4-2,10.8-3,16.2-3c11.5,0,20.5,3.3,26.9,9.8
			s9.6,15.5,9.6,26.8v67.4H791.9L791.9,454.9z M921.9,441.9c-9.3,9.9-22,14.9-38,14.9c-9.6,0-17.8-2.5-24.7-7.5l-5.4,7.5h-13.6v-142
			l24.2-5.7v47.7c6.4-3.9,13.5-5.8,21.1-5.8c15.1,0,27.3,4.7,36.6,14.2c9.3,9.4,13.9,21.5,13.9,36.3
			C935.9,418.4,931.3,431.9,921.9,441.9L921.9,441.9z M880.7,371.1c-7.2,0-12.6,2-16.3,6v53.3c3.5,4.1,8.3,6.2,14.4,6.2
			c11.7,0,19.9-2.7,24.8-8.2c4.9-5.5,7.3-14.2,7.3-26.2C910.8,381.5,900.8,371.1,880.7,371.1L880.7,371.1z M1017,375
			c-4.3-2.8-9-4.2-14.2-4.2c-5.6,0-10.6,2.5-14.9,7.5c-4.3,5-6.5,11.2-6.5,18.4v58.1h-24.2v-102h24.2v9.3c6.8-7.5,15.7-11.2,27-11.2
			c8.2,0,14.6,1.2,18.9,3.7L1017,375L1017,375z M1051.8,454.6c-3.4,3.4-7.5,5.1-12.3,5.1s-8.9-1.7-12.3-5.1
			c-3.4-3.4-5.1-7.4-5.1-12.2c0-4.8,1.7-8.8,5.1-12.2c3.4-3.3,7.5-5,12.3-5s8.9,1.7,12.3,5c3.4,3.3,5.1,7.4,5.1,12.2
			C1056.9,447.2,1055.2,451.3,1051.8,454.6L1051.8,454.6z M1156.6,454.8v-7.5c-6.4,6.3-15.7,9.4-27.8,9.4
			c-12.9,0-23.4-4.6-31.5-13.7c-8.1-9.2-12.1-21.4-12.1-36.6c0-15.3,4.6-28.4,13.9-39.2c9.3-10.8,20.3-16.3,33.1-16.3
			c10.7,0,18.8,2.5,24.3,7.4V311h18.5v143.8H1156.6L1156.6,454.8z M1156.6,376.5c-4.6-6.9-11-10.3-19-10.3
			c-9.9,0-17.8,3.6-23.9,10.9c-6.1,7.2-9.1,16.5-9.1,27.6c0,24.6,11.3,36.9,34,36.9c2.9,0,6.4-0.9,10.4-2.7c4.1-1.8,6.6-3.7,7.6-5.8
			V376.5L1156.6,376.5z M1228.3,333.3c-2.2,2.2-4.9,3.3-8.1,3.3c-3.1,0-5.8-1.1-8-3.3c-2.2-2.2-3.3-4.8-3.3-8c0-3.1,1.1-5.8,3.3-7.9
			c2.2-2.2,4.9-3.2,8-3.2c3.2,0,5.8,1.1,8.1,3.3c2.2,2.2,3.3,4.8,3.3,7.9S1230.5,331.1,1228.3,333.3L1228.3,333.3z M1228.5,454.9
			h-18.4v-86.8H1196v-15.3h32.6L1228.5,454.9L1228.5,454.9z M1332.7,389.2c0,10.3-3.3,18.9-9.8,25.9s-15,11-25.6,12l-15.2,1.5
			c-1.8,0.2-4.2,0.9-7.2,2c-3,1.2-4.5,2.7-4.5,4.6c0,2.6,3.2,3.9,9.5,3.9c2.8,0,7.1-0.5,12.9-1.5c5.9-1,10.2-1.5,13-1.5
			c10.2,0,18.1,2.4,23.8,7.2c5.7,4.8,8.5,11.5,8.5,20c0,9.4-4.3,17-12.8,22.8c-8.5,5.8-19.3,8.7-32.4,8.7c-6.7,0-13.8-1.2-21.2-3.5
			c-7.4-2.4-13.4-5.2-17.9-8.6l10-14.5c10.7,7.1,20.5,10.6,29.6,10.6c8.3,0,14.9-1.4,19.7-4.2c4.8-2.8,7.2-6.3,7.2-10.5
			c0-8.3-6.1-12.4-18.2-12.4c-2.1,0-5.8,0.5-11.2,1.5c-5.4,1-9.6,1.5-12.7,1.5c-14.7,0-22-5.5-22-16.4c0-3.4,1.7-6.4,5.2-9.2
			c3.4-2.7,7.7-4.7,12.8-5.9c-14.6-6.7-21.8-18.4-21.8-35.1c0-10.7,3.8-19.6,11.3-26.7c7.5-7.1,16.8-10.7,27.9-10.7
			c10.2,0,18.1,2.1,23.9,6.2l9.2-10.9l12,11.2l-11,8.2C1330.3,371.6,1332.7,379.5,1332.7,389.2L1332.7,389.2z M1307.7,372.2
			c-4-4.4-8.9-6.7-14.8-6.7c-6.4,0-11.6,2.2-15.6,6.7c-4,4.4-6,9.8-6,16.2c0,7.1,1.9,13,5.8,17.7c3.9,4.7,9.2,7,15.8,7
			c6.5,0,11.6-2.3,15.3-6.8c3.7-4.5,5.5-10.5,5.5-17.9C1313.7,382,1311.7,376.6,1307.7,372.2L1307.7,372.2z M1384,333.3
			c-2.2,2.2-4.9,3.3-8.1,3.3c-3.1,0-5.8-1.1-8-3.3c-2.2-2.2-3.3-4.8-3.3-8c0-3.1,1.1-5.8,3.3-7.9c2.2-2.2,4.9-3.2,8-3.2
			c3.2,0,5.8,1.1,8.1,3.3c2.2,2.2,3.3,4.8,3.3,7.9C1387.4,328.5,1386.3,331.1,1384,333.3L1384,333.3z M1384.3,454.9h-18.4v-86.8
			h-14.2v-15.3h32.6L1384.3,454.9L1384.3,454.9z M1442.8,436.1c2.9,3.6,7.7,5.4,14.2,5.4c4.7,0,9.6-1.2,14.6-3.5l2.7,15.9
			c-7.6,1.9-15.9,2.9-25,2.9c-8.2,0-15.1-3-20.7-9s-8.5-13.6-8.5-22.7v-58h-12v-14.3h12v-21.3l18.4-7v28.3h28.4v14.3h-28.4v50.7
			C1438.4,426.4,1439.9,432.5,1442.8,436.1L1442.8,436.1z M1558.4,453.6c-3.7-2.1-6.4-5.6-8-10.4c-7.3,9.1-18.6,13.6-33.7,13.6
			c-8.1,0-15.2-2.9-21.1-8.7c-6-5.8-8.9-13-8.9-21.7c0-10.4,4.6-19.1,13.8-26.3c9.2-7.2,20.9-10.7,35.1-10.7c3.9,0,8.2,0.8,13.1,2.5
			c0-16.5-7.5-24.8-22.4-24.8c-11.5,0-20.3,3.1-26.5,9.2l-7.7-15.2c3.5-2.8,8.3-5.2,14.4-7.2c6.2-2,12-3,17.6-3
			c15,0,25.9,3.4,32.7,10.1c6.8,6.7,10.2,17.4,10.2,32.1v36.6c0,9,2.7,14.9,8.1,17.9v9.1C1567.6,456.7,1562.1,455.7,1558.4,453.6
			L1558.4,453.6z M1548.6,404.8c-5.8-1.3-9.9-1.9-12.2-1.9c-9.3,0-16.8,2.4-22.7,7.1c-5.9,4.7-8.8,10.3-8.8,16.7
			c0,10.6,6.3,15.9,19,15.9c9.3,0,17.5-4.4,24.6-13.1L1548.6,404.8L1548.6,404.8z M1597.3,426V311h18.4v112c0,5.5,1.6,9.8,4.8,12.9
			c3.2,3.1,7.4,4.7,12.5,4.7v16.2C1609.2,456.8,1597.3,446.5,1597.3,426L1597.3,426z"/>
	</defs>
	<use xlink:href="#SVGID_1_"  style="overflow:visible;fill:#FFFFFF;"/>
	<clipPath id="SVGID_2_">
		<use xlink:href="#SVGID_1_"  style="overflow:visible;"/>
	</clipPath>
	<use xlink:href="#SVGID_1_"  style="overflow:visible;fill:none;stroke:#FFFFFF;stroke-miterlimit:10;"/>
</g>
<g>
	<defs>
		<path id="SVGID_3_" d="M521.5,298C461.6,298,413,346.6,413,406.5c0,33.9,15.5,64.2,39.9,84c5.2,4.3,10.8,8,16.7,11.3
			c15.4,8.4,33.1,13.2,51.9,13.2s36.5-4.8,51.9-13.2c5.9-3.2,11.5-7,16.7-11.3c24.3-19.9,39.9-50.2,39.9-84
			C630,346.6,581.4,298,521.5,298L521.5,298z M521.5,496.7c-18,0-34.8-5.3-48.9-14.4c7.1-24.7,26.3-42.5,48.9-42.5
			c22.6,0,41.8,17.7,48.9,42.5C556.3,491.4,539.5,496.7,521.5,496.7L521.5,496.7z M502,400.2c0-10.7,8.7-19.5,19.5-19.5
			c10.7,0,19.5,8.7,19.5,19.5c0,9.6-7,17.6-16.1,19.2c-1.1,0.2-2.2,0.3-3.3,0.3c-1.1,0-2.3-0.1-3.3-0.3
			C509,417.8,502,409.8,502,400.2L502,400.2z M585.2,470.4c-7.3-20.2-20.7-36.4-37.4-44.8c6.4-6.6,10.3-15.5,10.3-25.4
			c0-20.2-16.4-36.6-36.6-36.6s-36.6,16.4-36.6,36.6c0,9.9,3.9,18.8,10.3,25.4c-16.7,8.4-30.2,24.5-37.4,44.8
			c-16.4-16.3-26.5-38.9-26.5-63.9c0-49.8,40.4-90.2,90.2-90.2s90.2,40.4,90.2,90.2C611.7,431.5,601.6,454,585.2,470.4L585.2,470.4z
			"/>
	</defs>
	<clipPath id="SVGID_4_">
		<use xlink:href="#SVGID_3_"  style="overflow:visible;"/>
	</clipPath>
	<g style="clip-path:url(#SVGID_4_);enable-background:new    ;">
		<image style="overflow:visible;" width="1276" height="264" xlink:href="A6979B5.jpeg"  transform="matrix(1 0 0 1 384 274)">
		</image>
	</g>
</g>
</svg>
