<?xml version="1.0" encoding="utf-8"?>
<!-- Generator: Adobe Illustrator 21.1.0, SVG Export Plug-In . SVG Version: 6.00 Build 0)  -->
<svg version="1.1" id="Layer_1" xmlns="http://www.w3.org/2000/svg" xmlns:xlink="http://www.w3.org/1999/xlink" x="0px" y="0px"
	 viewBox="0 0 515.6 111" style="enable-background:new 0 0 515.6 111;" xml:space="preserve">
<style type="text/css">
	.st0{fill:#3C3C3B;enable-background:new    ;}
	.st1{fill:#878787;enable-background:new    ;}
	.st2{fill:#878787;}
	.st3{fill:#050606;}
	.st4{fill:#1D71B8;}
	.st5{fill:#BEBEBE;}
	.st6{fill:#36A9E1;}
</style>
<g>
	<path class="st0" d="M292,45.5c-5,0-8.9,1.6-11.9,4.9v-4.1h-10.7v45h10.7V65.7c0-3.2,1-5.9,2.9-8.1c1.9-2.2,4.1-3.3,6.6-3.3
		c2.3,0,4.4,0.6,6.3,1.9l4.5-9C298.4,46,295.6,45.5,292,45.5z"/>
	<path class="st0" d="M237.8,45.5c-3.4,0-6.5,0.8-9.3,2.6v-21l-10.7,2.5v62.6h6l2.4-3.3c3,2.2,6.7,3.3,10.9,3.3
		c7.1,0,12.7-2.2,16.8-6.6c4.1-4.4,6.2-10.4,6.2-17.8c0-6.5-2-11.9-6.1-16C249.8,47.6,244.5,45.5,237.8,45.5z M245.8,79.7
		c-2.2,2.4-5.8,3.6-10.9,3.6c-2.7,0-4.8-0.9-6.4-2.7V57c1.6-1.8,4-2.6,7.2-2.6c8.9,0,13.3,4.6,13.3,13.7
		C249,73.4,247.9,77.2,245.8,79.7z"/>
	<path class="st0" d="M191,45.5c-2.4,0-4.8,0.4-7.1,1.3c-2.4,0.9-4.3,2.1-5.6,3.6c-3-3.3-7.6-4.9-13.7-4.9c-4.7,0-8.5,1.6-11.5,4.8
		l-2.2-4h-7.3v44.9h10.7V58.9c0.7-1.1,1.9-2.2,3.4-3.2c1.6-1,3-1.5,4.4-1.5c2.5,0,4.5,0.6,5.9,1.9c1.4,1.3,2.1,3.1,2.1,5.3v29.9
		h10.6V58.8c0.6-1.2,1.6-2.2,3.1-3.2c1.5-0.9,3-1.4,4.6-1.4c5.4,0,8.1,3,8.1,8.9v28.2h10.6V61.6c0-5-1.4-9-4.2-11.8
		C200.1,46.9,196.1,45.5,191,45.5z"/>
</g>
<g>
	<path class="st1" d="M373.4,79.1V62.5c0-6.7-1.5-11.5-4.6-14.5c-3.1-3-8-4.6-14.8-4.6c-2.5,0-5.2,0.5-8,1.4c-2.8,0.9-4.9,2-6.5,3.3
		l3.5,6.9c2.8-2.8,6.8-4.2,12-4.2c6.8,0,10.2,3.8,10.2,11.2c-2.2-0.8-4.2-1.1-5.9-1.1c-6.4,0-11.7,1.6-15.9,4.8
		c-4.2,3.3-6.3,7.2-6.3,11.9c0,3.9,1.3,7.2,4,9.8c2.7,2.6,5.9,3.9,9.6,3.9c6.8,0,12-2,15.3-6.2c0.7,2.2,1.9,3.8,3.6,4.7
		c1.7,1,4.2,1.4,7.6,1.4v-4.1C374.6,85.8,373.4,83.2,373.4,79.1z M365,67.8V79c-3.2,3.9-6.9,5.9-11.1,5.9c-5.8,0-8.6-2.4-8.6-7.2
		c0-2.9,1.3-5.4,4-7.6c2.7-2.1,6.1-3.2,10.3-3.2C360.6,66.9,362.4,67.2,365,67.8L365,67.8z"/>
	<g>
		<path class="st2" d="M420.4,51.6L420.4,51.6c-4-4.1-9.1-6.1-15.7-6.1c-3.2,0-6.2,0.8-8.9,2.4l-1.9,1.2V26.9l-8.4,2V91h4.3l2.8-3.9
			l1,0.7c2.9,2.1,6.4,3.2,10.5,3.2c6.9,0,12.3-2.1,16.3-6.4c4-4.3,6-10,6-17.5C426.3,60.7,424.4,55.6,420.4,51.6z M413.8,80.2
			c-2.5,2.8-6.5,4.1-12.2,4.1c-3.1,0-5.6-1.1-7.5-3.3l-0.3-0.4V55.6l0.3-0.4c1.9-2.1,4.7-3.1,8.3-3.1c9.7,0,14.9,5.3,14.9,15.3
			C417.5,73.3,416.3,77.4,413.8,80.2z"/>
	</g>
	<path class="st1" d="M320.5,76.1V25.3h-8.3v52.1c0,9.3,5.4,14,16.2,14V84c-2.3,0-4.2-0.7-5.7-2.1C321.3,80.5,320.5,78.5,320.5,76.1
		z"/>
	<path class="st2" d="M434.8,80.6c4,3.3,8.1,5.6,13.7,5.6c6.1,0,9.2-3.3,9.2-7.3c0-4.8-5.6-6.9-10.6-8.8
		c-6.6-2.4-13.9-5.6-13.9-13.4c0-7.5,5.9-13.2,16-13.2c5.8,0,10.9,2.4,14.5,5.3l-3.7,5c-3.2-2.4-6.5-4.1-10.6-4.1
		c-5.8,0-8.5,3.2-8.5,6.7c0,4.3,5.1,6,10.3,8c6.7,2.5,14.2,5.3,14.2,14.1c0,7.6-6,13.9-17,13.9c-6.6,0-12.9-2.8-17.3-6.4L434.8,80.6
		z"/>
</g>
<g>
	<path class="st3" d="M112.6,77.7c-2.2-2.8-4.4-5.6-6.6-8.3c-1.4-1.4-2.6-2.9-3.6-4.5c-2.1-2.6-4.3-5.2-6.5-7.8
		c-0.5-0.6-0.5-1.2-0.5-1.9c0-4.2,0-8.5,0-12.7c0-1,0.1-1.7,1.3-2c1.6-0.5,2.9-1.6,4.3-2.6c2.5-2.8,4.1-5.9,4.3-9.7
		c-0.2-1.6-0.4-3.2-0.7-4.8c-0.1-0.2-0.2-0.5-0.3-0.7c-0.2-0.5-0.4-0.9-0.6-1.4c-3.1-5.2-7.8-7.5-13.8-7.4c-3.5,0-7.1,0-10.6-0.1
		l-8.8,0c-2.9,0-5.8,0-8.8,0.1c-6.1,0.3-10.4,3.3-13,8.8c-1.1,3.7-1.2,7.4,0.6,11.1c0,0,0,0-0.1,0c1,0.8,1.8,1.8,2.6,2.9
		c1.1,0.6,2.1,1.5,2.9,2.5c0.3,0.2,0.5,0.4,0.7,0.7c0.3,0.3,0.5,0.5,0.8,0.8c0,0,0,0,0,0c0.1,0.1,0.2,0.3,0.3,0.5c0,0,0,0,0,0
		c0.1,0.2,0.2,0.3,0.3,0.5c0.2,0.1,0.3,0.2,0.5,0.3c1.5,1.2,0.2,4.5,0.5,6.8c0.7,5.3-0.9,9.6-4.6,13.5c-4.1,4.3-7.4,9.2-11.2,13.8
		c-2.8,3.3-4.2,7.1-4.2,11.4c0.3,2.5,1.1,4.8,2.2,7c3.6,5,8.5,7.1,14.7,7c14.9-0.2,29.9-0.1,44.9,0c4.1,0,7.7-1.1,10.8-3.8
		C116.2,90.9,116.8,85.8,112.6,77.7z M85.6,33.8c-3.1,0.1-4.7,1-5.1,3.2c-0.3,2,0.8,3.5,3.6,4.5c3.2,0-0.5,0,2.7-0.1
		c1.3,0,0.9,0.5,0.9,1.6c-0.1,3.1,0,6.2,0,9.2c0,1-0.1,1.6-1.3,1.6c-3.3-0.1-6.6-0.1-9.9-0.2c-3.3,0.1-6.6,0.1-9.9,0.2
		c-1.4,0-1.2-0.9-1.2-1.7c0-4.4,0-8.8,0-13.2c0-3.5-1-4.6-4.4-5.2c-3.5-0.6-5.8-3.3-5.5-6.5c0.3-3.4,2.7-5.7,6.3-5.7
		c7.7,0,15.4,0.1,23.1,0.1c2.4,0,4.8-0.2,7.2,0c3.3,0.2,5.8,2.9,5.8,6.1c0,3.2-2.4,5.9-5.8,6.1 M104.4,92.5c-1.9,1.3-4,1.3-6.2,1.3
		c-1.4,0-2.8-0.1-4.1-0.1c-3.7,0-7.4,0.1-11.1,0.1c-9.6,0-19.3,0-28.9,0c-3.4,0-6.3-1-7.9-4.2c-1.5-3.1-0.6-6,1.5-8.6
		c5-6.2,9.9-12.4,14.9-18.6c0.5-0.7,1-1,1.9-1c5.2,0.1,10.5,0.1,15.7,0.1c2.8,0,5.5,0,8.3-0.1c1,0,1.6,0.3,2.1,1.1
		c5,6.3,10,12.5,15,18.8C108.8,85.2,108.2,90,104.4,92.5z"/>
	<path class="st4" d="M94.1,93.7c3.9-6.7,3.3-10.5-2.1-17c-3.9-4.7-7.7-9.5-11.5-14.3c-0.2-0.2-0.2-0.6-0.3-0.8c2.8,0,5.5,0,8.3-0.1
		c1,0,1.6,0.3,2.1,1.1c5,6.3,10,12.5,15,18.8c3.2,4,2.6,8.8-1.2,11.3c-1.9,1.3-4,1.3-6.2,1.3C96.8,93.8,95.4,93.7,94.1,93.7z"/>
	<path class="st5" d="M104.8,22.7c0,0.2-0.1,0.4-0.1,0.6c-0.1-0.2-0.2-0.5-0.3-0.7C104.5,22.6,104.7,22.6,104.8,22.7z"/>
	<g>
		<path class="st6" d="M92,76.7c-3.9-4.7-7.7-9.5-11.5-14.3c-0.2-0.2-0.2-0.6-0.3-0.8c-5.2,0-10.5,0-15.7-0.1c-0.9,0-1.4,0.4-1.9,1
			c-4.9,6.2-9.9,12.4-14.9,18.6c-2.1,2.6-3,5.4-1.5,8.6c1.6,3.2,4.4,4.2,7.9,4.2c9.6,0,19.3,0,28.9,0c3.7,0,7.4-0.1,11.1-0.1
			C97.9,86.9,97.4,83.1,92,76.7z M58.9,89.8c-3.3,0-6-2.7-6-6s2.7-6,6-6s6,2.7,6,6S62.2,89.8,58.9,89.8z M66.1,76.5
			c-1.7,0-3-1.4-3-3s1.4-3,3-3s3,1.4,3,3S67.8,76.5,66.1,76.5z"/>
	</g>
</g>
</svg>
