<?xml version="1.0" encoding="utf-8"?>
<!-- Generator: Adobe Illustrator 21.1.0, SVG Export Plug-In . SVG Version: 6.00 Build 0)  -->
<svg version="1.1" id="Layer_1" xmlns="http://www.w3.org/2000/svg" xmlns:xlink="http://www.w3.org/1999/xlink" x="0px" y="0px"
	 viewBox="0 0 90.3 86.5" style="enable-background:new 0 0 90.3 86.5;" xml:space="preserve">
<style type="text/css">
	.st0{fill:#35A8E0;}
	.st1{clip-path:url(#SVGID_2_);}
	.st2{fill:#FD5471;}
</style>
<g>
	<path class="st0" d="M39.6,72.3c-0.7-2.1-1.3-4.2-1.5-6.5h-3.5c-0.6-0.9-1.4-1.5-2.3-1.9v-1.3h5.6c-0.1-2.2,0.2-4.4,0.7-6.5h-6.3
		c0-2.1-1.4-4.4-3.2-5.4c-5.5-3.1-8.7-8.8-8.6-15.1C20.6,27,27.5,19.9,36,19.4c4.7-0.3,9.1,1.3,12.5,4.5c3.4,3.2,5.3,7.5,5.3,12.1
		c0,0.3,0,0.6,0,0.8c2-1.1,4.2-1.9,6.4-2.5c-0.4-5.8-3-11.3-7.2-15.2c-4.7-4.4-10.8-6.6-17.3-6.2c-11.8,0.7-21.3,10.6-21.7,22.4
		c-0.3,8.6,4.2,16.6,11.8,20.9v13.6h3.3v2.4H39.6z"/>
	<path class="st0" d="M23.3,36.7h6.5c0-3.6,2.4-7.3,6.5-7.3v-6.5C29,22.9,23.3,29,23.3,36.7z"/>
	<rect x="0.7" y="33.4" class="st0" width="8.1" height="6.5"/>
	<rect x="33.8" y="1.1" class="st0" width="6.5" height="7.3"/>
	<rect x="55.5" y="11.2" transform="matrix(0.7072 -0.707 0.707 0.7072 7.247 46.281)" class="st0" width="7.9" height="6.5"/>
	<rect x="10.8" y="55.8" transform="matrix(0.7072 -0.707 0.707 0.7072 -37.4581 27.7029)" class="st0" width="7.9" height="6.5"/>
	<rect x="11.5" y="10.4" transform="matrix(0.7071 -0.7071 0.7071 0.7071 -5.8559 14.6587)" class="st0" width="6.5" height="7.9"/>
</g>
<g>
	<defs>
		<circle id="SVGID_1_" cx="66.3" cy="62.2" r="22.6"/>
	</defs>
	<clipPath id="SVGID_2_">
		<use xlink:href="#SVGID_1_"  style="overflow:visible;"/>
	</clipPath>
	<g class="st1">
		<path class="st2" d="M43.1,42.7c6.2,0,11.5-5.3,11.5-11.5s-5.2-11.5-11.5-11.5s-11.5,5.2-11.5,11.5S36.9,42.7,43.1,42.7z
			 M43.1,26.2c2.6,0,4.9,2.3,4.9,5s-2.3,5-4.9,5c-2.6,0-5-2.3-5-5S40.5,26.2,43.1,26.2z"/>
		<path class="st0" d="M66.1,39.4c-6.6,0-12.5,2.9-16.7,7.2c-6.9-1.3-13.8-0.3-20.3,2.3c-3.3,1.6-5.6,5.3-5.6,9.2v14.1h22
			c3.6,7.9,11.5,13.1,20.7,13.1C78.9,85.2,89,75.1,89,62.3S78.9,39.4,66.1,39.4z M30,65.6v-7.5c0-1.3,0.6-2.6,1.9-2.9
			c4.3-1.9,8.8-2.6,13.5-2.3c-1.6,2.6-2.3,5.9-2.3,9.5c0,1,0,2.3,0.3,3.3H30z M66.1,78.7c-9.2,0-16.4-7.2-16.4-16.4
			s7.2-16.4,16.4-16.4s16.4,7.2,16.4,16.4S75.3,78.7,66.1,78.7z"/>
		<polygon class="st0" points="69.4,52.5 62.8,52.5 62.8,59.1 56.3,59.1 56.3,65.6 62.8,65.6 62.8,72.2 69.4,72.2 69.4,65.6 
			76,65.6 76,59.1 69.4,59.1 		"/>
	</g>
</g>
</svg>
