<?xml version="1.0" encoding="utf-8"?>
<!-- Generator: Adobe Illustrator 21.1.0, SVG Export Plug-In . SVG Version: 6.00 Build 0)  -->
<svg version="1.0" id="Layer_1" xmlns="http://www.w3.org/2000/svg" xmlns:xlink="http://www.w3.org/1999/xlink" x="0px" y="0px"
	 viewBox="0 0 52 63.5" enable-background="new 0 0 52 63.5" xml:space="preserve">
<path fill="#686867" d="M49.9,9.5c-8.4,0-16.5-3.2-22.6-9c-0.8-0.7-2-0.7-2.7,0c-6.1,5.8-14.2,9-22.6,9c-1.1,0-2,0.9-2,2v31.2
	C0,43.9,5.9,58,22,62.4c0.2,0.1,3.8,1.1,4,1.1c0.3,0,3.7-1,4-1.1c15-4.1,22-17.7,22-19.7V11.5C51.9,10.4,51,9.5,49.9,9.5z
	 M47.9,42.3c-1.2,2.6-2.7,4.9-4.4,7c-2.4-5.8-7.6-10.2-13.9-11.4c4.2-1.5,7.3-5.6,7.3-10.4c0-6.1-4.9-11-11-11s-11,4.9-11,11
	c0,4.8,3.1,8.9,7.3,10.4c-6.3,1.2-11.5,5.6-13.9,11.4c-1.8-2.1-3.3-4.4-4.4-7V13.4c8.1-0.4,15.8-3.5,22-8.8c6.2,5.3,13.9,8.4,22,8.8
	V42.3z"/>
</svg>
