<?xml version="1.0" encoding="utf-8"?>
<!-- Generator: Adobe Illustrator 21.1.0, SVG Export Plug-In . SVG Version: 6.00 Build 0)  -->
<svg version="1.0" id="Layer_1" xmlns="http://www.w3.org/2000/svg" xmlns:xlink="http://www.w3.org/1999/xlink" x="0px" y="0px"
	 viewBox="0 0 612 536" enable-background="new 0 0 612 536" xml:space="preserve">
<g>
	<g>
		<path fill="#B8B8B8" d="M215.7,225.3c32,55.4,74.8,99.1,129.9,131.2c1-1.1,2-1.9,2.8-2.9c7.3-9.3,14.6-18.6,21.9-28
			c17.1-21.9,41.6-27.3,66.3-14.6c30.6,15.7,61.3,31.5,91.9,47.3c28.9,14.9,37.4,47,19.7,74.1c-12.1,18.7-24.5,37.3-36.4,56.1
			c-16.4,26.1-40,35.3-70.2,33.2c-73.7-5.2-136.8-36.3-195-78.9c-69.7-51-124.9-114.7-162.8-192.8c-13.4-27.6-24.4-56.2-29-86.8
			c-2.7-17.9-6-35.9-3.7-54.1C53.3,90.8,62,75.6,77.2,65c21.3-14.8,42.9-29.3,64.8-43.3c24.4-15.5,56.5-7.1,70.2,18.5
			c17.2,32.1,33.9,64.5,50.4,97c11,21.6,4.8,47.2-14.3,62.5C237.7,208.2,226.8,216.6,215.7,225.3z M170.6,216
			c0.9-0.8,1.8-1.5,2.7-2.3c17.5-13.6,35-27.2,52.4-40.9c6.9-5.4,8.4-12.1,4.4-19.9c-16.1-31.2-32.3-62.4-48.5-93.5
			c-4.8-9.3-13.4-11.5-22.1-5.7c-20,13.2-39.9,26.5-59.9,39.9c-9.3,6.3-13.9,15.3-13.4,26.4c0.6,11.8,1.7,23.6,3.3,35.3
			c3.7,25.9,12.8,50.3,24,73.8c41.3,86.5,103.7,154.4,184.2,205.6c45.8,29.1,94.9,49.6,150.2,52c14.2,0.6,25-3.7,32.6-15.8
			c4.3-6.8,8.7-13.4,13.1-20.1c8.3-12.7,16.9-25.2,24.7-38.2c6.9-11.5,6.2-16.9-6-23.1c-30.6-15.5-61-31.4-91.4-47
			c-8.7-4.5-14.5-3.1-20.5,4.5c-13.8,17.6-27.5,35.2-41.2,52.7c-0.8,1-1.7,1.9-2.4,2.6C273.2,361.6,210.8,300.2,170.6,216z"/>
		<path fill="#B8B8B8" d="M542.1,253.3c-12.2,0.1-19.9-7.2-22-20.6c-3.9-25.4-11.8-49.6-24.7-71.8c-35.4-61-87.4-98.2-157.6-109
			c-12.9-2-20.7-12.7-18.6-25.6C321,15,331.9,7.5,344,9.3c110.2,16,196.3,98,217.7,207.4c0.7,3.8,1.2,7.6,1.8,11.3
			C565.9,242.5,556.8,253.3,542.1,253.3z"/>
		<path fill="#B8B8B8" d="M469.2,257c-11.1,0-18.9-6.8-21.3-17.9c-13.4-60.1-49.7-98.2-109.5-113.6c-2.3-0.6-4.6-0.9-6.8-1.4
			c-11.1-2.8-18.1-14-15.7-25.3c2.3-11.3,12.7-19.1,23.9-16.8c71.2,14.7,119.7,55.8,144.2,124.5c2.9,8.1,4.6,16.7,6.4,25.1
			C493.3,245.7,483.7,257,469.2,257z"/>
		<path fill="#B8B8B8" d="M396.5,261.1c-10.8,0-17.6-5.2-20.9-15.7c-7.5-24-23.3-39.8-47.3-47.4c-12.8-4.1-18.4-14.8-14.4-27.9
			c3.6-11.6,14.9-17.3,27.1-13.2c37.9,12.9,64.1,37.7,76.2,76.3C422.2,248.6,412.6,261.1,396.5,261.1z"/>
	</g>
</g>
</svg>
