<?xml version="1.0" encoding="utf-8"?>
<!-- Generator: Adobe Illustrator 21.1.0, SVG Export Plug-In . SVG Version: 6.00 Build 0)  -->
<svg version="1.0" id="Layer_1" xmlns="http://www.w3.org/2000/svg" xmlns:xlink="http://www.w3.org/1999/xlink" x="0px" y="0px"
	 viewBox="0 0 145 130" enable-background="new 0 0 145 130" xml:space="preserve">
<g>
	<path fill="#FD5471" d="M112.2,69.5c-2.2,21.4-21.4,37-42.8,34.7c-8.5-0.9-16.6-4.6-22.8-10.5l6.7-6.7C65.2,98.1,83.9,97.5,95,85.5
		c4.1-4.4,6.8-10,7.6-16H90.5c-1.4,0-2.6-1.1-2.6-2.6c0-0.7,0.3-1.3,0.8-1.8l15.7-15.7c1.4-1.4,3.6-1.4,5,0l15.7,15.7
		c1,1,1,2.6,0,3.6c-0.5,0.5-1.1,0.8-1.8,0.8L112.2,69.5z M23.4,64.5c-1.4,0-2.6,1.1-2.6,2.6c0,0.7,0.3,1.3,0.8,1.8l15.7,15.7
		c1.4,1.4,3.6,1.4,5,0l15.7-15.7c1-1,1-2.6,0-3.6c-0.5-0.5-1.1-0.8-1.8-0.8H44.1c2.2-16.1,17.2-27.4,33.3-25.2
		c6,0.8,11.6,3.5,16,7.6l6.7-6.7C84.5,25.4,59.9,26,45,41.6c-5.9,6.2-9.6,14.2-10.5,22.8L23.4,64.5z"/>
</g>
</svg>
