<?xml version="1.0" encoding="utf-8"?>
<!-- Generator: Adobe Illustrator 21.1.0, SVG Export Plug-In . SVG Version: 6.00 Build 0)  -->
<svg version="1.1" id="Layer_1" xmlns="http://www.w3.org/2000/svg" xmlns:xlink="http://www.w3.org/1999/xlink" x="0px" y="0px"
	 viewBox="0 0 100 94" style="enable-background:new 0 0 100 94;" xml:space="preserve">
<style type="text/css">
	.st0{fill:url(#SVGID_1_);}
	.st1{fill:#FFFFFF;}
</style>
<linearGradient id="SVGID_1_" gradientUnits="userSpaceOnUse" x1="0.775" y1="47.1778" x2="99.725" y2="47.1778">
	<stop  offset="0" style="stop-color:#22A1DC"/>
	<stop  offset="1" style="stop-color:#227DA8"/>
</linearGradient>
<path class="st0" d="M99.6,13.5L99.6,13.5c0.1-0.6-0.2-1.1-0.2-1.6c0-0.3-0.1-0.6-0.2-0.8c-0.2-0.5-0.3-0.9-0.5-1.3
	c-0.2-0.5-0.5-0.9-0.7-1.4c-0.4-0.7-0.9-1.4-1.3-2.1c-0.1-0.1-0.2-0.2-0.3-0.3c-0.4-0.3-0.7-0.9-1.1-1.2c-0.9-0.6-1.6-1.4-2.5-1.9
	c-0.6-0.3-1.3-0.7-2-1c-0.6-0.3-1.2-0.5-1.8-0.7C88.5,1,88,1,87.6,0.8c-0.2,0-0.3,0-0.5,0c-0.3,0-0.5,0.1-0.7-0.1
	c-0.2-0.1-0.3,0-0.5,0c-5.6,0-11.1,0-16.7,0c-18.2,0-36.5,0-54.7,0c-0.3,0-0.6-0.1-0.9,0.1c0,0-0.2,0-0.3,0c-0.3,0.1-0.6,0-0.9,0.2
	c-0.5,0-0.8,0.3-1.3,0.4c-0.3,0.1-0.7,0.3-1.1,0.4C9.1,2.1,8.3,2.5,7.6,2.9C7.2,3.2,6.8,3.5,6.4,3.8S5.7,4.4,5.3,4.7
	C5,4.9,4.8,5.1,4.7,5.3C4.6,5.7,4.2,5.9,4,6.2C3.2,7,2.7,8,2.3,8.9c-0.3,0.6-0.6,1.3-0.8,2c-0.2,0.5-0.3,0.9-0.4,1.4
	C1.1,12.7,1,13,1,13.4v0.1c-0.3,0.5-0.2,0.9-0.2,1.4c0,21.6,0,43.3,0,64.9c0,0.3-0.1,0.5,0.1,0.8c0,0.1,0,0.3,0,0.4
	c0,0.3-0.1,0.6,0.1,0.8c0,0.1,0,0.1,0,0.2c0,0.5,0.2,1,0.4,1.4c0.1,0.4,0.3,0.9,0.4,1.3C2,85.2,2.2,85.6,2.4,86
	c0.6,0.8,1.1,1.7,1.8,2.5c0.4,0.5,0.9,1,1.4,1.5c1.1,0.9,2.3,1.8,3.7,2.4c0.5,0.2,1,0.3,1.5,0.5c0.6,0.2,1.2,0.3,1.7,0.5
	c0.3,0.1,0.7,0,1,0.1c0.1,0.1,0.2,0.1,0.2,0.2c24.4,0,48.7,0,73,0c0-0.1,0-0.2,0.3-0.3c0.2,0,0.4-0.1,0.7-0.1
	c0.4,0.1,0.7-0.1,1.1-0.2s0.7-0.1,1-0.3c0.1-0.1,0.3-0.2,0.4-0.2c0.9-0.3,1.7-0.7,2.5-1.2c0.8-0.4,1.5-1,2.2-1.6
	c0.6-0.6,1.2-1.3,1.8-1.9c0.2-0.2,0.3-0.5,0.5-0.8c0.5-0.7,0.9-1.5,1.3-2.3c0.2-0.4,0.4-0.9,0.5-1.4c0-0.2,0.1-0.3,0.2-0.5
	c0.2-0.4,0.1-0.8,0.3-1.2c0-0.1,0-0.2,0-0.3c0.1-0.4,0-0.7,0.2-1c0-0.1,0-0.3,0-0.4c0-2.2,0-4.3,0-6.5c0-19.7,0-39.5,0-59.2
	C99.7,14,99.8,13.7,99.6,13.5z"/>
<title>41 all</title>
<g>
	<g transform="translate(-1129.000000, -779.000000)">
		<g transform="translate(1129.000000, 779.000000)">
			<path class="st1" d="M64.9,57.1c-8.5,4.8-19.1,4.8-27.7,0L22,48.5l15.3-8.6c8.5-4.8,19.1-4.8,27.7,0l15.3,8.6L64.9,57.1z
				 M86,42.3l-17-9.6c-11-6.2-24.7-6.2-35.8,0l-17,9.6c-2.3,1.3-3.6,3.7-3.6,6.2s1.4,5,3.6,6.2l17,9.6c5.5,3.1,11.7,4.6,17.9,4.6
				c6.2,0,12.4-1.6,17.9-4.6l17-9.6c2.3-1.3,3.6-3.7,3.6-6.2S88.3,43.5,86,42.3L86,42.3z"/>
			<path class="st1" d="M51.3,38.2c-1,0-1.9,0.1-2.7,0.4c0.5,0.7,0.7,1.5,0.7,2.3c0,2.3-1.9,4.2-4.2,4.2c-1.2,0-2.2-0.5-2.9-1.2
				c-0.6,1.3-1,2.8-1,4.4c0,5.6,4.5,10.1,10.1,10.1s10.1-4.5,10.1-10.1S56.9,38.2,51.3,38.2"/>
		</g>
	</g>
</g>
</svg>
