<?xml version="1.0" encoding="utf-8"?>
<!-- Generator: Adobe Illustrator 21.1.0, SVG Export Plug-In . SVG Version: 6.00 Build 0)  -->
<svg version="1.1" id="Layer_1" xmlns="http://www.w3.org/2000/svg" xmlns:xlink="http://www.w3.org/1999/xlink" x="0px" y="0px"
	 viewBox="0 0 100 94" style="enable-background:new 0 0 100 94;" xml:space="preserve">
<style type="text/css">
	.st0{fill:#FD5471;}
</style>
<title>41 all</title>
<g>
	<path class="st0" d="M67,21.9c-0.3-10-8.6-18-18.6-18h-0.1C41.2,3.9,34.8,8,31.7,14.4c-2.2,3.5-1.1,8.1,2.4,10.3s8.1,1.1,10.3-2.4
		c0.3-0.5,0.5-0.9,0.7-1.4c0.6-1.2,1.8-2,3.2-2.1c2,0,3.6,1.6,3.8,3.6c0,1.6-1,3-2.5,3.5c-5.1,1.7-8.6,6.4-8.7,11.8v5.3
		c0.4,4.1,4.1,7.1,8.3,6.7c3.5-0.4,6.3-3.2,6.7-6.7v-3.6C62.9,36.4,67.2,29.5,67,21.9L67,21.9z M53,35.7L53,35.7
		c-0.2,0.1-0.4,0.1-0.5,0.2c-0.7,0.4-1.2,1.2-1.2,2v5.2c0,1.6-1.3,2.8-2.8,2.8c-1.6,0-2.8-1.3-2.8-2.8v-5.3c0-3.4,2.2-6.4,5.5-7.4
		l0,0c3.5-1.2,5.7-4.5,5.6-8.1v0c-0.3-4.4-3.9-7.9-8.3-8l0,0c-3.2,0-6,1.8-7.4,4.7c-0.7,1.4-2.4,2-3.8,1.3c-1.4-0.7-2-2.4-1.3-3.8
		c2.3-4.8,7.1-7.9,12.5-7.9h0.1c7.5,0,13.7,6,13.9,13.5l0,0C62.5,28.2,58.7,33.7,53,35.7L53,35.7z"/>
	<path class="st0" d="M48.5,50.2c-4,0-7.4-3-7.8-7l0-5.4c0.1-5.6,3.6-10.4,8.9-12.2c1.4-0.5,2.2-1.7,2.2-3.2
		c-0.1-1.8-1.6-3.2-3.4-3.2c-1.2,0-2.3,0.7-2.9,1.9c-0.2,0.5-0.4,1-0.7,1.5c-2.3,3.7-7.1,4.8-10.8,2.6c-3.7-2.3-4.8-7.1-2.6-10.8
		c3.1-6.4,9.7-10.7,16.9-10.7h0.1c10.3,0,18.6,8.1,19,18.4v0c0.2,7.7-4.1,14.6-11.1,17.8v3.4c-0.4,3.7-3.3,6.6-7,7
		C49,50.2,48.7,50.2,48.5,50.2z M48.4,18.5c2.2,0,4,1.8,4.1,3.9c0,1.8-1.1,3.4-2.7,3.9c-5,1.6-8.4,6.2-8.4,11.5v5.3
		c0.4,3.9,3.9,6.7,7.8,6.3c3.3-0.4,6-3,6.3-6.3l0-3.8l0.2-0.1c6.8-3,11.1-9.8,10.9-17.2l0.4,0l-0.4,0C66.3,12,58.3,4.3,48.4,4.2
		h-0.1C41.4,4.3,35,8.4,32,14.6C30,18,31,22.4,34.3,24.4c3.3,2.1,7.7,1,9.8-2.3c0.3-0.4,0.5-0.9,0.7-1.4
		C45.5,19.3,46.8,18.5,48.4,18.5z M48.5,46.3c-1.8,0-3.2-1.4-3.2-3.2v-5.3c0-3.6,2.3-6.7,5.7-7.8c3.3-1.1,5.5-4.3,5.4-7.8
		c-0.3-4.2-3.7-7.6-7.9-7.7c-3,0-5.8,1.7-7.1,4.5c-0.4,0.8-1,1.4-1.8,1.6c-0.8,0.3-1.7,0.2-2.5-0.1c-1.6-0.8-2.3-2.7-1.5-4.3
		c2.3-4.9,7.4-8.1,12.8-8.1h0.1c7.7,0,14,6.1,14.3,13.9C62.9,28.4,59,34,53,36l-0.1-0.3l0,0.1L53,36c-0.1,0.1-0.3,0.1-0.4,0.2
		c-0.6,0.4-1,1-1,1.7v5.2C51.7,44.8,50.2,46.3,48.5,46.3z M48.4,13.8c4.6,0.1,8.4,3.8,8.7,8.3c0.1,3.9-2.2,7.3-5.9,8.6
		c-3.1,1-5.2,3.8-5.2,7.1v5.3c0,1.3,1.1,2.4,2.4,2.4s2.4-1.1,2.4-2.4v-5.2c0-0.7,0.3-1.4,0.7-1.9h-1l1.9-0.7c0.1,0,0.1,0,0.2-0.1
		l0.1,0c5.6-1.9,9.3-7.2,9.1-13.2C61.7,14.7,55.8,9,48.4,8.9c-5.2,0-10,3-12.2,7.7c-0.6,1.2-0.1,2.7,1.2,3.3
		c0.6,0.3,1.3,0.3,1.9,0.1c0.6-0.2,1.1-0.7,1.4-1.3C42.1,15.7,45.1,13.8,48.4,13.8z"/>
</g>
<g>
	<path class="st0" d="M55.9,61.1c0-4.1-3.4-7.5-7.5-7.5s-7.5,3.4-7.5,7.5s3.4,7.5,7.5,7.5S55.9,65.2,55.9,61.1z M45.6,61.1
		c0-1.6,1.3-2.8,2.8-2.8c1.6,0,2.8,1.3,2.8,2.8c0,1.6-1.3,2.8-2.8,2.8C46.9,63.9,45.6,62.6,45.6,61.1L45.6,61.1z"/>
	<path class="st0" d="M48.4,68.9c-4.3,0-7.9-3.5-7.9-7.9s3.5-7.9,7.9-7.9c4.3,0,7.9,3.5,7.9,7.9S52.8,68.9,48.4,68.9z M48.4,53.9
		c-3.9,0-7.1,3.2-7.1,7.1s3.2,7.1,7.1,7.1s7.1-3.2,7.1-7.1S52.4,53.9,48.4,53.9z M48.4,64.3c-1.6,0-3-1.2-3.1-2.8h0l0-0.4
		c0-1.8,1.4-3.2,3.2-3.2c1.8,0,3.2,1.4,3.2,3.2S50.2,64.3,48.4,64.3z M46,60.8v0.3c0,1.3,1.1,2.4,2.4,2.4c1.3,0,2.4-1.1,2.4-2.4
		s-1.1-2.4-2.4-2.4C47.2,58.6,46.2,59.6,46,60.8z"/>
</g>
<g>
	<path class="st0" d="M72.8,74.6H47.5c-0.5,0-1,0.2-1.4,0.6L35,86.3c-0.2,0.2-0.6,0.2-0.8,0C34.1,86.1,34,86,34,85.8v-9.3
		c0-1.1-0.9-1.9-1.9-1.9h-6.8c-2.7,0-4.8-2.2-4.8-4.8V44.5c0-2.7,2.2-4.8,4.8-4.8h10.2c1.1,0,2-0.9,2-2s-0.9-2-2-2H25.2
		c-4.8,0-8.7,3.9-8.7,8.8c0,0,0,0,0,0v25.2c0,4.8,3.9,8.7,8.7,8.7h4.9v7.4c0,2.5,2,4.5,4.5,4.4c1.2,0,2.3-0.5,3.1-1.3l10.5-10.5
		h24.5c4.8,0,8.7-3.9,8.7-8.7V44.5c0-4.8-3.9-8.7-8.7-8.7h-4.1c-1.1,0-2,0.9-2,2c0,1.1,0.9,2,2,2h4.1c2.7,0,4.8,2.2,4.8,4.8v25.2
		C77.6,72.4,75.4,74.6,72.8,74.6z"/>
	<path class="st0" d="M34.6,90.7c-2.7,0-4.8-2.2-4.8-4.8v-7h-4.5c-5,0-9.1-4.1-9.1-9.1V44.5c0-2.4,0.9-4.7,2.7-6.5
		c1.7-1.7,4-2.7,6.4-2.7h10.2c1.3,0,2.3,1,2.3,2.3s-1,2.3-2.3,2.3H25.2c-2.5,0-4.5,2-4.5,4.5v25.2c0,2.5,2,4.5,4.5,4.5h6.8
		c1.3,0,2.3,1,2.3,2.3v9.3c0,0.1,0,0.1,0.1,0.1c0.1,0.1,0.2,0.1,0.3,0l11.1-11.1c0.4-0.4,1-0.7,1.6-0.7h25.3h0c2.5,0,4.5-2,4.5-4.5
		V44.5c0-2.5-2-4.5-4.5-4.5h-4.1c-1.3,0-2.3-1-2.3-2.3s1-2.3,2.3-2.3h4.1c5,0,9.1,4.1,9.1,9.1v25.2c0,5-4.1,9.1-9.1,9.1H48.5
		L38,89.2C37.1,90.1,35.9,90.6,34.6,90.7C34.6,90.7,34.6,90.7,34.6,90.7z M25.2,36.1c-2.2,0-4.3,0.9-5.9,2.5
		c-1.6,1.6-2.4,3.7-2.4,5.9v25.2c0,4.6,3.8,8.4,8.4,8.4h5.3v7.8c0,2.2,1.8,4.1,4.1,4.1c0,0,0,0,0,0c1.1,0,2.1-0.4,2.9-1.2l10.6-10.6
		h24.6c4.6,0,8.4-3.8,8.4-8.4V44.5c0-4.6-3.8-8.4-8.4-8.4h-4.1c-0.9,0-1.6,0.7-1.6,1.6s0.7,1.6,1.6,1.6h4.1c2.9,0,5.2,2.3,5.2,5.2
		v25.2c0,2.9-2.3,5.2-5.2,5.2H47.5c-0.4,0-0.8,0.2-1.1,0.5L35.3,86.5c-0.4,0.4-1,0.4-1.4,0c-0.2-0.2-0.3-0.4-0.3-0.7v-9.3
		c0-0.9-0.7-1.6-1.6-1.6h-6.8c-2.9,0-5.2-2.3-5.2-5.2V44.5c0-2.9,2.3-5.2,5.2-5.2h10.2c0.9,0,1.6-0.7,1.6-1.6s-0.7-1.6-1.6-1.6H25.2
		z"/>
</g>
</svg>
