<?xml version="1.0" encoding="utf-8"?>
<!-- Generator: Adobe Illustrator 21.1.0, SVG Export Plug-In . SVG Version: 6.00 Build 0)  -->
<svg version="1.1"
	 id="Layer_1" xmlns:cc="http://creativecommons.org/ns#" xmlns:dc="http://purl.org/dc/elements/1.1/" xmlns:inkscape="http://www.inkscape.org/namespaces/inkscape" xmlns:rdf="http://www.w3.org/1999/02/22-rdf-syntax-ns#" xmlns:sodipodi="http://sodipodi.sourceforge.net/DTD/sodipodi-0.dtd" xmlns:svg="http://www.w3.org/2000/svg"
	 xmlns="http://www.w3.org/2000/svg" xmlns:xlink="http://www.w3.org/1999/xlink" x="0px" y="0px" viewBox="0 0 100 88.9"
	 style="enable-background:new 0 0 100 88.9;" xml:space="preserve">
<style type="text/css">
	.st0{fill:#FFFFFF;}
</style>
<g transform="translate(0,-1020.3622)">
	<path class="st0" d="M47.7,1036.7c0,0-0.1,0-0.1,0c-0.1,0-0.3,0-0.4,0.1l-44.4,15.3c-0.8,0.3-1.2,1.1-0.9,1.9
		c0.2,0.4,0.5,0.8,0.9,0.9l14.3,4.9v28.9c0,0.6,0.3,1.1,0.8,1.4c18.8,10,38.7,10.8,59.6,0c0.5-0.3,0.8-0.8,0.8-1.4v-28.9l12.3-4.2
		v15.4c-0.2,0.2-0.5,0.4-0.7,0.6c-0.6,0.6-1.1,1.3-1.7,2.2c-1.1,1.7-2.1,3.5-2.1,5.5c0,3.4,2.8,6.1,6.1,6.1c3.4,0,6.1-2.8,6.1-6.1
		c0-2-1-3.8-2-5.4c-0.5-0.8-1.1-1.6-1.7-2.2c-0.3-0.3-0.6-0.7-1.1-0.9v-17.1c0-0.7-0.4-1.3-1-1.5l-32.8-11.3l-5.1-1.7l-6.5-2.3
		C48,1036.7,47.8,1036.7,47.7,1036.7L47.7,1036.7z M47.6,1039.9l6,2.1l5.1,1.7l28.6,9.9l-39.7,13.7l-39.7-13.7l31.3-10.8l22.4,7.7
		c0.8,0.3,1.7-0.1,2-0.9c0.3-0.8-0.1-1.7-0.9-2c0,0,0,0,0,0l-18.7-6.5L47.6,1039.9L47.6,1039.9z M69.1,1049.9
		c-0.8,0-1.5,0.8-1.4,1.6c0,0.6,0.5,1.2,1.1,1.4l4,1.4c0.8,0.3,1.7-0.1,2-0.9c0.3-0.8-0.1-1.7-0.9-2c0,0-0.1,0-0.1,0l-4-1.4
		c-0.1-0.1-0.3-0.1-0.4-0.1C69.2,1049.9,69.1,1049.9,69.1,1049.9L69.1,1049.9z M20.1,1061l27.1,9.3c0.3,0.1,0.7,0.1,1,0l27.1-9.3
		v20.7c-19.6,9.8-37.6,9.1-55.1,0L20.1,1061L20.1,1061z M92.2,1074.1c0.4,0.4,0.8,1,1.2,1.6c0.9,1.3,1.5,3.1,1.5,3.6
		c0,1.5-1.2,2.8-2.8,2.8c-1.5,0-2.8-1.2-2.8-2.8c0-0.5,0.7-2.3,1.5-3.6C91.4,1075,91.9,1074.5,92.2,1074.1z M75.2,1085.1v2.7
		c-19.6,9.8-37.6,9.1-55.1,0v-2.6C37.5,1093.7,55.9,1094.4,75.2,1085.1L75.2,1085.1z"/>
</g>
</svg>
