<?xml version="1.0" encoding="utf-8"?>
<!-- Generator: Adobe Illustrator 21.1.0, SVG Export Plug-In . SVG Version: 6.00 Build 0)  -->
<svg version="1.0"
	 id="Layer_1" xmlns:cc="http://creativecommons.org/ns#" xmlns:dc="http://purl.org/dc/elements/1.1/" xmlns:inkscape="http://www.inkscape.org/namespaces/inkscape" xmlns:rdf="http://www.w3.org/1999/02/22-rdf-syntax-ns#" xmlns:sodipodi="http://sodipodi.sourceforge.net/DTD/sodipodi-0.dtd" xmlns:svg="http://www.w3.org/2000/svg"
	 xmlns="http://www.w3.org/2000/svg" xmlns:xlink="http://www.w3.org/1999/xlink" x="0px" y="0px" viewBox="0 0 100 89.2"
	 enable-background="new 0 0 100 89.2" xml:space="preserve">
<path fill="#FFFFFF" d="M94.1,35.5l-6.7-7.4l6.3-6.2c1.4-1.3,2-3.3,1.7-5.1c-0.3-1.9-1.6-3.5-3.3-4.3c-0.1,0-0.1,0-0.2-0.1L67.3,2.4
	C66.6,2.1,65.8,2,65,2c-0.9,0-1.8,0.2-2.6,0.6L50.8,8.3c0,0-0.1,0-0.1,0.1c-0.1,0-0.1-0.1-0.1-0.1L38.6,2.5C37.8,2.2,37,2,36.1,2
	c-0.8,0-1.5,0.2-2.3,0.5L9.5,12.3c-0.1,0-0.1,0-0.2,0.1c-1.7,0.8-3,2.4-3.3,4.3c-0.3,1.9,0.3,3.8,1.6,5.1l6.4,6.3l-6.8,7.4
	c-1.2,1.3-1.7,3-1.5,4.7C6,42,7,43.5,8.5,44.4c0,0,0.1,0.1,0.1,0.1l8.1,4.5c-1.8,1-3,2.9-3,4.9v12.3c0,2,1.1,3.9,2.9,5
	c0,0,0.1,0,0.1,0.1l29.9,15.4c0.8,0.4,1.8,0.7,2.7,0.7c0.9,0,1.8-0.2,2.6-0.6l32.2-15.4c0,0,0.1,0,0.1-0.1c1.9-1,3.1-2.9,3.1-5V53.9
	c0-2.1-1.2-3.9-3-4.9l8.1-4.5c0.1,0,0.1-0.1,0.1-0.1c1.5-0.9,2.5-2.4,2.7-4.2C95.9,38.5,95.3,36.8,94.1,35.5z M50.7,18.7l18.4,9.2
	l-18.4,9.2l-18.4-9.2L50.7,18.7z M10.8,40.5c-0.3-0.2-0.5-0.5-0.6-0.8c0-0.4,0.1-0.7,0.3-1L20.4,28l-9.5-9.4
	c-0.3-0.3-0.4-0.7-0.3-1.1c0.1-0.4,0.3-0.7,0.7-0.9l24.4-9.9c0.1-0.1,0.3-0.1,0.5-0.1c0.2,0,0.3,0,0.5,0.1l11.9,5.8
	c0.4,0.2,0.6,0.6,0.7,1s-0.2,0.8-0.6,1.1L21.9,27.9l25.8,13l0,0l0.9,0.4c0.3,0.2,0.5,0.5,0.6,0.8c0,0.4-0.1,0.7-0.3,1L38.3,54.7
	c-0.2,0.2-0.5,0.4-0.8,0.4c-0.2,0-0.4-0.1-0.6-0.2L10.8,40.5z M82.9,66.3c0,0.4-0.2,0.7-0.6,0.9L50.1,82.6c-0.2,0.1-0.4,0.1-0.6,0.1
	c-0.2,0-0.4-0.1-0.6-0.2L19,67.2c-0.3-0.2-0.6-0.5-0.6-0.9V53.9c0-0.4,0.2-0.8,0.6-0.9c0.2-0.1,0.3-0.1,0.5-0.1
	c0.2,0,0.5,0.1,0.7,0.2L37.4,63l12.4-11.9c0.2-0.2,0.5-0.3,0.8-0.3c0.3,0,0.6,0.1,0.8,0.3L63.9,63l17.2-9.9c0.2-0.1,0.4-0.2,0.7-0.2
	c0.2,0,0.4,0,0.5,0.1c0.4,0.2,0.6,0.5,0.6,0.9L82.9,66.3L82.9,66.3z M90.5,40.5l-26,14.4C64.3,55,64.1,55,63.9,55
	c-0.3,0-0.6-0.1-0.8-0.4L52.5,43.1c-0.2-0.3-0.3-0.6-0.3-1c0-0.4,0.3-0.7,0.6-0.8l0.9-0.4l0,0l25.8-13L53.6,15l0,0l-0.9-0.4
	c-0.4-0.2-0.6-0.6-0.6-1.1c0-0.4,0.3-0.8,0.7-1l11.7-5.8c0.2-0.1,0.3-0.1,0.5-0.1c0.2,0,0.3,0,0.5,0.1l24.7,10.1
	c0.4,0.2,0.6,0.5,0.7,0.9c0.1,0.4-0.1,0.8-0.3,1.1L81,28l9.8,10.7c0.2,0.3,0.3,0.6,0.3,1C91,40,90.8,40.3,90.5,40.5z"/>
</svg>
