<?xml version="1.0" encoding="utf-8"?>
<!-- Generator: Adobe Illustrator 21.1.0, SVG Export Plug-In . SVG Version: 6.00 Build 0)  -->
<svg version="1.0"
	 id="Layer_1" xmlns:cc="http://creativecommons.org/ns#" xmlns:dc="http://purl.org/dc/elements/1.1/" xmlns:inkscape="http://www.inkscape.org/namespaces/inkscape" xmlns:rdf="http://www.w3.org/1999/02/22-rdf-syntax-ns#" xmlns:sodipodi="http://sodipodi.sourceforge.net/DTD/sodipodi-0.dtd" xmlns:svg="http://www.w3.org/2000/svg"
	 xmlns="http://www.w3.org/2000/svg" xmlns:xlink="http://www.w3.org/1999/xlink" x="0px" y="0px" viewBox="0 0 100 75.9"
	 enable-background="new 0 0 100 75.9" xml:space="preserve">
<g>
	<g>
		<path fill="#FFFFFF" d="M70.8,25.3L70.8,25.3c-10.2,0-18.5,8.3-18.5,18.5c0,10.2,8.3,18.5,18.5,18.5c10.2,0,18.5-8.3,18.5-18.5
			C89.3,33.6,81,25.3,70.8,25.3z M73,59.1c-0.7,0.1-1.3,0.2-2,0.2c-0.3,0-0.6,0-0.9,0c-8.2-0.4-14.8-7.2-14.8-15.5
			c0-8.5,6.9-15.5,15.5-15.5h0c8.5,0,15.5,6.9,15.5,15.5C86.3,51.6,80.5,58.1,73,59.1z"/>
		<path fill="#FFFFFF" d="M5.8,10.6h62.8c1.7,0,3-1.4,3-3s-1.4-3-3-3H5.8c-1.7,0-3,1.4-3,3S4.1,10.6,5.8,10.6z"/>
		<path fill="#FFFFFF" d="M70.8,15.6c-4.2,0-8.1,0.9-11.7,2.5c-0.1,0-0.2,0-0.2,0H5.8c-1.7,0-3,1.4-3,3c0,1.7,1.4,3,3,3h44.8
			c-2.2,2.3-4,4.9-5.3,7.8c-0.3-0.1-0.7-0.2-1-0.2H5.8c-1.7,0-3,1.4-3,3c0,1.7,1.4,3,3,3h37.5c-0.4,1.9-0.6,3.8-0.6,5.8
			c0,0.6,0,1.2,0.1,1.8H5.8c-1.7,0-3,1.4-3,3c0,1.7,1.4,3,3,3h38c0.8,2.7,2,5.3,3.5,7.6H5.8c-1.7,0-3,1.4-3,3c0,1.7,1.4,3,3,3h46.5
			c0.1,0,0.3,0,0.4,0c4.9,4.1,11.2,6.6,18.1,6.6C86.4,72,99,59.4,99,43.8C99,28.3,86.4,15.6,70.8,15.6z M70.8,65.9
			c-12.2,0-22.1-9.9-22.1-22.1c0-12.2,9.9-22.1,22.1-22.1c12.2,0,22.1,9.9,22.1,22.1C92.9,56,83,65.9,70.8,65.9z"/>
	</g>
	<g>
		<path fill="#FFFFFF" d="M70.1,56.5v-2.1c-2.6-0.3-5-1.3-7-3.1l2.1-2.5c1.6,1.4,3.2,2.2,4.9,2.5v-5.5c-2.2-0.5-3.7-1.2-4.7-2
			c-1-0.8-1.5-2.1-1.5-3.7c0-1.6,0.6-3,1.7-4c1.2-1,2.7-1.6,4.5-1.7v-1.4h1.8v1.5c2.1,0.2,4.1,0.9,5.9,2.1L76,39.1
			c-1.3-0.9-2.6-1.4-4.1-1.7v5.4H72c2.2,0.5,3.8,1.2,4.8,2.1c1,0.9,1.5,2.1,1.5,3.8c0,1.7-0.6,3-1.8,4.1c-1.2,1-2.7,1.6-4.7,1.7v2.1
			H70.1z M68.1,38.1c-0.5,0.4-0.7,1-0.7,1.6c0,0.6,0.2,1.1,0.6,1.5c0.4,0.4,1.1,0.7,2.2,1.1v-4.9C69.2,37.4,68.6,37.7,68.1,38.1z
			 M74.1,50.6c0.5-0.4,0.8-1,0.8-1.7c0-0.7-0.2-1.2-0.6-1.6c-0.4-0.4-1.2-0.8-2.3-1.1v5.1C72.8,51.3,73.6,51.1,74.1,50.6z"/>
	</g>
</g>
</svg>
