<?xml version="1.0" encoding="utf-8"?>
<!-- Generator: Adobe Illustrator 21.1.0, SVG Export Plug-In . SVG Version: 6.00 Build 0)  -->
<svg version="1.0"
	 id="Layer_1" xmlns:cc="http://creativecommons.org/ns#" xmlns:dc="http://purl.org/dc/elements/1.1/" xmlns:inkscape="http://www.inkscape.org/namespaces/inkscape" xmlns:rdf="http://www.w3.org/1999/02/22-rdf-syntax-ns#" xmlns:sodipodi="http://sodipodi.sourceforge.net/DTD/sodipodi-0.dtd" xmlns:svg="http://www.w3.org/2000/svg"
	 xmlns="http://www.w3.org/2000/svg" xmlns:xlink="http://www.w3.org/1999/xlink" x="0px" y="0px" viewBox="0 0 100 89.2"
	 enable-background="new 0 0 100 89.2" xml:space="preserve">
<g>
	<path fill="#FFFFFF" d="M15,24.5h8.7c2.4,4.6,7.1,7.7,12.5,7.7s10.1-3,12.5-7.7H87c3.5,0,6.2-2.8,6.2-6.3S90.3,12,87,12H48.6
		c-2.4-4.7-7.1-7.7-12.5-7.7S26,7.3,23.7,12H15c-3.5,0-6.2,2.8-6.2,6.3C8.8,21.6,11.7,24.5,15,24.5z M29.5,16.3
		c0.8-3,3.6-5.2,6.6-5.2c3.2,0,5.8,2.1,6.6,5.2l0.5,1.9L42.8,20c-0.8,3-3.6,5.2-6.6,5.2c-3.2,0-5.8-2.1-6.6-5.2L29,18.1L29.5,16.3z"
		/>
	<path fill="#FFFFFF" d="M15,51.2h38.4c2.4,4.6,7.1,7.7,12.5,7.7s10.1-3,12.5-7.7H87c3.5,0,6.2-2.8,6.2-6.3s-2.8-6.2-6.2-6.2h-8.7
		c-2.4-4.6-7.1-7.7-12.5-7.7s-10.1,3-12.5,7.7H15c-3.5,0-6.2,2.8-6.2,6.3C8.8,48.5,11.7,51.2,15,51.2z M59.1,43.1
		c0.8-3,3.6-5.2,6.6-5.2s5.8,2.1,6.6,5.2l0.5,1.9l-0.5,1.9c-0.8,3-3.6,5.2-6.6,5.2s-5.8-2.1-6.6-5.2L58.6,45L59.1,43.1z"/>
	<path fill="#FFFFFF" d="M15,78h8.7c2.4,4.6,7.1,7.7,12.5,7.7s10.1-3,12.5-7.7H87c3.5,0,6.2-2.8,6.2-6.3s-2.8-6.2-6.2-6.2H48.6
		c-2.4-4.6-7.1-7.7-12.5-7.7s-10.1,3-12.5,7.7H15c-3.5,0-6.2,2.8-6.2,6.3C8.8,75.3,11.7,78,15,78z M29.5,70c0.8-3,3.6-5.2,6.6-5.2
		c3.2,0,5.8,2.1,6.6,5.2l0.5,1.9l-0.5,1.9c-0.8,3-3.6,5.2-6.6,5.2c-3.2,0-5.8-2.1-6.6-5.2L29,71.9L29.5,70z"/>
</g>
</svg>
