<?xml version="1.0" encoding="utf-8"?>
<!-- Generator: Adobe Illustrator 21.1.0, SVG Export Plug-In . SVG Version: 6.00 Build 0)  -->
<svg version="1.0"
	 id="Layer_1" xmlns:cc="http://creativecommons.org/ns#" xmlns:dc="http://purl.org/dc/elements/1.1/" xmlns:inkscape="http://www.inkscape.org/namespaces/inkscape" xmlns:rdf="http://www.w3.org/1999/02/22-rdf-syntax-ns#" xmlns:sodipodi="http://sodipodi.sourceforge.net/DTD/sodipodi-0.dtd" xmlns:svg="http://www.w3.org/2000/svg"
	 xmlns="http://www.w3.org/2000/svg" xmlns:xlink="http://www.w3.org/1999/xlink" x="0px" y="0px" viewBox="0 0 100 83.9"
	 enable-background="new 0 0 100 83.9" xml:space="preserve">
<g transform="translate(0,-952.36218)">
	<path fill="#FFFFFF" d="M50,955.2c7.2,0,14.4,2.7,19.8,8.2c4.1,4.1,6.5,9.1,7.6,14.3C88,979.8,96,989.1,96,1000.2
		c0,12.7-10.3,23-23,23H62c-1.7,0-3-1.3-3-3c0-1.7,1.3-3,3-3c0,0,0.1,0,0.1,0h11c9.4,0,17-7.6,17-17c0-8.9-6.8-16.2-15.4-16.9
		c-1.4-0.1-2.5-1.2-2.7-2.6c-0.6-4.8-2.7-9.4-6.3-13c-4.3-4.3-9.9-6.4-15.6-6.4s-11.2,2.1-15.5,6.4c-5,5-7.1,11.7-6.3,18.2
		c0.2,1.6-1,3.1-2.6,3.4c-0.1,0-0.2,0-0.4,0H24c-7.8,0-14,6.2-14,14s6.2,14,14,14h14c1.7,0,3,1.3,3,3c0,1.7-1.3,3-3,3
		c0,0-0.1,0-0.1,0H24c-11,0-20-9-20-20c0-10.4,8-18.9,18.2-19.8c0-7.2,2.5-14.5,8-20C35.7,958,42.8,955.2,50,955.2L50,955.2z
		 M50,989.2c1,0,1.5,0.3,2,0.8l11,10c1.3,1.2,1.2,3.1,0.2,4.3c-1.1,1.2-3.1,1.2-4.3,0.2l-6-5.4v29.2c0,1.7-1.3,3-3,3
		c-1.7,0-3-1.3-3-3V999l-6,5.4c-1.2,1.1-3.1,0.9-4.3-0.2c-1.2-1.2-1-3.2,0.2-4.3l11-10C48.6,989.5,49,989.2,50,989.2L50,989.2z"/>
</g>
</svg>
