<?xml version="1.0" encoding="utf-8"?>
<!-- Generator: Adobe Illustrator 21.1.0, SVG Export Plug-In . SVG Version: 6.00 Build 0)  -->
<svg version="1.1"
	 id="Layer_1" xmlns:cc="http://creativecommons.org/ns#" xmlns:dc="http://purl.org/dc/elements/1.1/" xmlns:inkscape="http://www.inkscape.org/namespaces/inkscape" xmlns:rdf="http://www.w3.org/1999/02/22-rdf-syntax-ns#" xmlns:sodipodi="http://sodipodi.sourceforge.net/DTD/sodipodi-0.dtd" xmlns:svg="http://www.w3.org/2000/svg"
	 xmlns="http://www.w3.org/2000/svg" xmlns:xlink="http://www.w3.org/1999/xlink" x="0px" y="0px" viewBox="0 0 100 75.9"
	 style="enable-background:new 0 0 100 75.9;" xml:space="preserve">
<style type="text/css">
	.st0{fill:#FFFFFF;}
</style>
<g>
	<path class="st0" d="M76.9,53.8c-1.7-2.1-3.3-4.2-5-6.3c-1-1-2-2.2-2.7-3.5c-1.6-2-3.2-4-4.9-5.9c-0.4-0.5-0.4-0.9-0.4-1.5
		c0-3.2,0-6.4,0-9.6c0-0.8,0.1-1.3,1-1.5c1.2-0.3,2.2-1.2,3.3-2c1.9-2.1,3.1-4.5,3.3-7.3c-0.2-1.2-0.3-2.4-0.5-3.7
		c-0.1-0.2-0.1-0.3-0.2-0.5c-0.2-0.4-0.3-0.7-0.5-1.1c-2.4-4-6-5.7-10.5-5.6c-2.7,0-5.4,0-8-0.1l-6.7,0c-2.2,0-4.4,0-6.7,0.1
		c-4.6,0.2-7.9,2.5-9.9,6.6c-0.8,2.8-0.9,5.6,0.5,8.4c0,0,0,0,0,0c0.7,0.6,1.4,1.4,2,2.2c0.9,0.5,1.6,1.1,2.2,1.9
		c0.2,0.1,0.4,0.3,0.5,0.5c0.2,0.2,0.4,0.4,0.6,0.6c0,0,0,0,0,0c0.1,0.1,0.2,0.2,0.2,0.4c0,0,0,0,0,0c0.1,0.1,0.1,0.2,0.2,0.4
		c0.1,0.1,0.3,0.1,0.4,0.2c1.2,0.9,0.2,3.4,0.4,5.2c0.5,4-0.7,7.2-3.5,10.2c-3.1,3.3-5.6,7-8.5,10.5c-2.1,2.5-3.2,5.4-3.2,8.6
		c0.2,1.9,0.8,3.6,1.7,5.3c2.7,3.8,6.4,5.4,11.1,5.3c11.3-0.1,22.7-0.1,34,0c3.1,0,5.8-0.9,8.2-2.9C79.6,63.8,80.1,60,76.9,53.8z
		 M56.4,20.6c-2.4,0-3.6,0.8-3.9,2.4c-0.3,1.5,0.6,2.6,2.8,3.4c2.4,0-0.4,0,2.1-0.1c1,0,0.7,0.4,0.7,1.2c0,2.3,0,4.7,0,7
		c0,0.7-0.1,1.2-1,1.2c-2.5-0.1-5-0.1-7.5-0.2c-2.5,0.1-5,0.1-7.5,0.2c-1.1,0-0.9-0.7-0.9-1.3c0-3.3,0-6.7,0-10c0-2.7-0.7-3.5-3.4-4
		c-2.6-0.5-4.4-2.5-4.2-4.9c0.2-2.6,2.1-4.3,4.8-4.3c5.8,0,11.7,0,17.5,0.1c1.8,0,3.6-0.1,5.4,0c2.5,0.1,4.4,2.2,4.4,4.6
		c0,2.4-1.9,4.5-4.4,4.6 M70.7,65.1c-1.4,1-3.1,1-4.7,1c-1,0-2.1-0.1-3.1-0.1c-2.8,0-5.6,0.1-8.4,0.1c-7.3,0-14.6,0-21.9,0
		c-2.6,0-4.8-0.7-6-3.2c-1.1-2.4-0.4-4.5,1.1-6.5c3.8-4.7,7.5-9.4,11.3-14.1c0.4-0.5,0.8-0.8,1.4-0.8c4,0,8,0.1,11.9,0.1
		c2.1,0,4.2,0,6.3-0.1c0.7,0,1.2,0.2,1.6,0.8c3.8,4.8,7.6,9.5,11.4,14.2C74,59.6,73.6,63.1,70.7,65.1z"/>
	<path class="st0" d="M71,12.1c0,0.1-0.1,0.3-0.1,0.4c-0.1-0.2-0.1-0.3-0.2-0.5C70.8,12,70.9,12.1,71,12.1z"/>
	<circle class="st0" cx="36.2" cy="58.5" r="4.6"/>
	<circle class="st0" cx="41.7" cy="50.6" r="2.3"/>
</g>
</svg>
