<?xml version="1.0" encoding="utf-8"?>
<!-- Generator: Adobe Illustrator 21.1.0, SVG Export Plug-In . SVG Version: 6.00 Build 0)  -->
<svg version="1.0"
	 id="Layer_1" xmlns:cc="http://creativecommons.org/ns#" xmlns:dc="http://purl.org/dc/elements/1.1/" xmlns:inkscape="http://www.inkscape.org/namespaces/inkscape" xmlns:rdf="http://www.w3.org/1999/02/22-rdf-syntax-ns#" xmlns:sodipodi="http://sodipodi.sourceforge.net/DTD/sodipodi-0.dtd" xmlns:svg="http://www.w3.org/2000/svg"
	 xmlns="http://www.w3.org/2000/svg" xmlns:xlink="http://www.w3.org/1999/xlink" x="0px" y="0px" viewBox="0 0 100 88.9"
	 enable-background="new 0 0 100 88.9" xml:space="preserve">
<g transform="translate(0,-952.36218)">
	<path fill="#FFFFFF" d="M44.4,994.3c-0.7,0-1.3,0.3-1.7,0.8c-1,1.4-2.6,2.2-4.5,2.2c-1.9,0-3.5-0.9-4.5-2.3
		c-0.6-0.9-1.9-1.1-2.8-0.4c-0.9,0.6-1.1,1.9-0.4,2.8c0,0,0,0,0,0.1c1.8,2.3,4.6,3.8,7.7,3.8c3.1,0,5.9-1.5,7.7-3.9
		c0.7-0.9,0.5-2.1-0.4-2.8C45.3,994.5,44.9,994.3,44.4,994.3z"/>
	<path fill="#FFFFFF" d="M38.3,954.7c-13.6,0-25,10.6-27.4,24.3c0,0,0,0.1,0,0.1c-0.3,1.7-0.4,3.4-0.4,5.2v18.8
		c0,0.4,0.1,0.7,0.3,1.1c0.2,0.3,0.5,0.6,0.8,0.7c4.8,2.3,9.7,4,14.8,5c-9.5,4.8-16.5,15.3-18.4,27.8c0,0.3,0,0.6,0.1,0.9
		c0.1,0.3,0.2,0.5,0.4,0.7c0.2,0.2,0.4,0.4,0.7,0.5c0.3,0.1,0.5,0.2,0.8,0.2h56.6c0.3,0,0.6-0.1,0.8-0.2c0.3-0.1,0.5-0.3,0.7-0.5
		c0.2-0.2,0.3-0.5,0.4-0.7c0.1-0.3,0.1-0.6,0.1-0.9c-0.4-2.8-1.1-5.5-2-8H94c0.3,0,0.6-0.1,0.8-0.2c0.3-0.1,0.5-0.3,0.7-0.5
		c0.2-0.2,0.3-0.5,0.4-0.7c0.1-0.3,0.1-0.6,0.1-0.9c-1.5-9.8-6.8-18.1-14.1-22.2c3.8-0.9,7.5-2.2,11-3.9c0.3-0.2,0.6-0.4,0.8-0.7
		c0.2-0.3,0.3-0.7,0.3-1.1v-15.2c0-1.6-0.2-3.1-0.4-4.4c-2-11.2-11.3-19.8-22.4-19.8c-4.7,0-9,1.5-12.6,4.1
		C53.5,958.3,46.3,954.7,38.3,954.7L38.3,954.7z M38.3,958.7c11.6,0,21.4,9.1,23.4,21c0,0,0,0,0,0c0.3,1.5,0.4,3,0.4,4.5v17.6
		c-3.3,1.5-6.6,2.7-10,3.6c3.3-3.2,5.5-7.6,6-12.4c0,0,0,0,0,0c0,0,0,0,0,0c0.3-4.5,0.1-9.4,0.1-14c0-0.4-0.1-0.8-0.3-1.1
		c-0.2-0.3-0.5-0.6-0.9-0.7c-11.1-5-23.5-5.7-37.3,0c-0.4,0.1-0.7,0.4-0.9,0.7c-0.2,0.3-0.3,0.7-0.3,1.1v12.2c0,0.2,0,0.3,0,0.5
		c0,0,0,0,0,0.1c0,1,0.1,2,0.3,2.9c0,0.1,0,0.2,0.1,0.2c0.8,4.1,2.8,7.7,5.7,10.5c-3.4-0.9-6.7-2.1-10-3.6v-17.6
		c0-1.6,0.2-3.2,0.4-4.5c0,0,0,0,0,0C16.9,967.7,26.7,958.7,38.3,958.7L38.3,958.7z M71.2,964c9.5,0,17.5,7.7,18.7,17.7
		c0.1,0.9,0.1,1.7,0.2,2.6v14c-2.1,1-4.3,1.8-6.4,2.4c2.5-3.1,3.9-7.4,4-10.8V980c0-0.4-0.1-0.8-0.3-1.1c-0.2-0.3-0.5-0.6-0.9-0.7
		c-6.6-3-13.8-4.1-21.6-2.7c-0.9-3-2.2-5.8-3.9-8.3C63.9,965.2,67.4,964,71.2,964L71.2,964z M38.7,977.1c5.4,0,10.5,1.1,15.4,3.2
		c-0.2,4.5,0.4,9.4-0.2,13.7c0,0,0,0,0,0c-1.3,7.4-7.9,13-15.6,13c-8.6,0-15.6-6.9-15.9-15.5c0,0,0,0,0,0c0-0.1,0-0.3,0-0.4v-10.8
		C28.2,978.1,33.6,977.1,38.7,977.1L38.7,977.1z M71.5,978.9c4.2,0,8.2,0.9,12.1,2.4v8.6c0,6.2-4.4,12.4-12.4,12.4
		c-1.8,0-3.5-0.4-5.1-1.1c-0.3-7.2,0.6-15-0.4-21.8C67.7,979,69.6,978.9,71.5,978.9z M64.8,1005c2,0.8,4.1,1.3,6.4,1.3c0,0,0,0,0,0
		c0,0,0,0,0,0c9.6,0,17.9,8.1,20.4,19.4H64.9c-3.3-7-8.5-12.6-14.7-15.8C55.2,1008.9,60.1,1007.2,64.8,1005L64.8,1005z M38.3,1011
		C38.3,1011,38.3,1011,38.3,1011C38.3,1011,38.3,1011,38.3,1011c12.3,0,22.9,10.5,25.9,25H12.4C15.4,1021.5,26,1011.1,38.3,1011
		L38.3,1011z"/>
</g>
</svg>
