<?xml version="1.0" encoding="utf-8"?>
<!-- Generator: Adobe Illustrator 21.1.0, SVG Export Plug-In . SVG Version: 6.00 Build 0)  -->
<svg version="1.1"
	 id="Layer_1" xmlns:cc="http://creativecommons.org/ns#" xmlns:dc="http://purl.org/dc/elements/1.1/" xmlns:inkscape="http://www.inkscape.org/namespaces/inkscape" xmlns:rdf="http://www.w3.org/1999/02/22-rdf-syntax-ns#" xmlns:sodipodi="http://sodipodi.sourceforge.net/DTD/sodipodi-0.dtd" xmlns:svg="http://www.w3.org/2000/svg"
	 xmlns="http://www.w3.org/2000/svg" xmlns:xlink="http://www.w3.org/1999/xlink" x="0px" y="0px" viewBox="0 0 100 75.9"
	 style="enable-background:new 0 0 100 75.9;" xml:space="preserve">
<style type="text/css">
	.st0{clip-path:url(#SVGID_2_);fill:#FFFFFF;}
</style>
<g>
	<g>
	</g>
</g>
<g>
	<defs>
		<path id="SVGID_1_" d="M49.2,1.7C29,1.7,12.7,18,12.7,38.2c0,11.4,5.2,21.6,13.4,28.3c1.7,1.4,3.6,2.7,5.6,3.8
			c5.2,2.8,11.1,4.4,17.5,4.4s12.3-1.6,17.5-4.4c2-1.1,3.9-2.4,5.6-3.8c8.2-6.7,13.4-16.9,13.4-28.3C85.7,18,69.3,1.7,49.2,1.7
			L49.2,1.7z M49.2,68.5c-6.1,0-11.7-1.8-16.5-4.8c2.4-8.3,8.8-14.3,16.5-14.3s14.1,6,16.5,14.3C60.9,66.7,55.2,68.5,49.2,68.5
			L49.2,68.5z M42.6,36c0-3.6,2.9-6.6,6.6-6.6c3.6,0,6.6,2.9,6.6,6.6c0,3.2-2.4,5.9-5.4,6.5c-0.4,0.1-0.7,0.1-1.1,0.1
			s-0.8,0-1.1-0.1C45,42,42.6,39.3,42.6,36L42.6,36z M70.6,59.7c-2.5-6.8-7-12.2-12.6-15.1c2.2-2.2,3.5-5.2,3.5-8.5
			c0-6.8-5.5-12.3-12.3-12.3S36.9,29.3,36.9,36c0,3.3,1.3,6.3,3.5,8.5c-5.6,2.8-10.2,8.2-12.6,15.1c-5.5-5.5-8.9-13.1-8.9-21.5
			c0-16.8,13.6-30.3,30.3-30.3s30.3,13.6,30.3,30.3C79.5,46.6,76.1,54.1,70.6,59.7L70.6,59.7z"/>
	</defs>
	<use xlink:href="#SVGID_1_"  style="overflow:visible;fill:#FFFFFF;"/>
	<clipPath id="SVGID_2_">
		<use xlink:href="#SVGID_1_"  style="overflow:visible;"/>
	</clipPath>
	<rect x="-17.3" y="-9.1" class="st0" width="130.7" height="113"/>
</g>
</svg>
