<?xml version="1.0" encoding="utf-8"?>
<!-- Generator: Adobe Illustrator 21.1.0, SVG Export Plug-In . SVG Version: 6.00 Build 0)  -->
<svg version="1.0" id="Layer_1" xmlns="http://www.w3.org/2000/svg" xmlns:xlink="http://www.w3.org/1999/xlink" x="0px" y="0px"
	 viewBox="0 0 90.3 86.5" enable-background="new 0 0 90.3 86.5" xml:space="preserve">
<g>
	<path fill="#FD5471" d="M28.7,30.3c8,0,14.8-6.8,14.8-14.8S36.8,0.7,28.7,0.7S13.9,7.4,13.9,15.5S20.7,30.3,28.7,30.3z M28.7,9.1
		c3.4,0,6.3,3,6.3,6.4s-3,6.4-6.3,6.4s-6.4-3-6.4-6.4S25.3,9.1,28.7,9.1z"/>
	<path fill="#FD5471" d="M58.4,26.1c-8.5,0-16.1,3.8-21.6,9.3c-8.9-1.7-17.8-0.4-26.2,3c-4.2,2.1-7.2,6.8-7.2,11.9v18.2h28.4
		c4.7,10.2,14.8,16.9,26.7,16.9C74.9,85.3,88,72.2,88,55.7S74.9,26.1,58.4,26.1z M11.8,59.9v-9.7c0-1.7,0.8-3.4,2.5-3.8
		c5.5-2.5,11.4-3.4,17.4-3c-2.1,3.4-3,7.6-3,12.3c0,1.3,0,3,0.4,4.2H11.8z M58.4,76.9c-11.9,0-21.2-9.3-21.2-21.2
		s9.3-21.2,21.2-21.2s21.2,9.3,21.2,21.2S70.2,76.9,58.4,76.9z"/>
	<polygon fill="#FD5471" points="62.6,43 54.1,43 54.1,51.5 45.7,51.5 45.7,59.9 54.1,59.9 54.1,68.4 62.6,68.4 62.6,59.9 
		71.1,59.9 71.1,51.5 62.6,51.5 	"/>
</g>
</svg>
