<?xml version="1.0" encoding="utf-8"?>
<!-- Generator: Adobe Illustrator 21.1.0, SVG Export Plug-In . SVG Version: 6.00 Build 0)  -->
<svg version="1.0" id="Layer_1" xmlns="http://www.w3.org/2000/svg" xmlns:xlink="http://www.w3.org/1999/xlink" x="0px" y="0px"
	 viewBox="0 0 100 94" enable-background="new 0 0 100 94" xml:space="preserve">
<title>41 all</title>
<g>
	<path fill="#FD5471" d="M4.8,64.2c0.3-0.4,0.5-0.8,0.8-1.1c0.7-0.6,1.5-0.8,2.4-0.4c0.9,0.4,1.4,1.1,1.4,2.1c0,2.8,0,5.6,0,8.4
		c0,5.6,4,9.6,9.6,9.6c20.6,0,41.2,0,61.8,0c4.6,0,8.3-2.8,9.3-7.1c0.2-0.8,0.3-1.7,0.3-2.5c0-2.6,0-5.2,0-7.7
		c0-1.6,0.6-2.6,1.8-2.9c1.1-0.3,2,0.3,2.8,1.7c0,3.6,0,7.2,0,10.7c-0.1,0.2-0.1,0.4-0.2,0.6c-0.8,4.9-3.5,8.4-8,10.5
		c-1.3,0.6-2.8,0.8-4.2,1.3c-21.8,0-43.7,0-65.5,0c-0.2-0.1-0.3-0.1-0.5-0.2c-5.9-0.9-10.4-5.2-11.6-11c-0.1-0.4-0.2-0.8-0.3-1.2
		C4.8,71.3,4.8,67.7,4.8,64.2z"/>
	<path fill="#FD5471" d="M50.8,8c1.7,0.4,2.9,1.4,4.2,2.5c5.9,5.3,11.8,10.5,17.6,15.8c0.4,0.4,0.8,0.9,1,1.5c0.3,0.9,0,1.7-0.8,2.3
		c-0.8,0.6-1.6,0.7-2.5,0.2c-0.6-0.3-1.1-0.8-1.6-1.3c-5.2-4.7-10.5-9.3-15.7-14c-0.2-0.2-0.5-0.4-0.9-0.8c0,0.5,0,0.8,0,1.2
		c0,14.3,0,28.5,0,42.8c0,1-0.2,1.8-1,2.4c-1.4,1-3.4,0.1-3.5-1.7c0-0.3,0-0.6,0-1c0-14.2,0-28.3,0-42.5c0-0.3,0-0.7,0-1.3
		c-0.6,0.5-1,0.9-1.4,1.2c-5.3,4.7-10.5,9.4-15.8,14.1c-0.5,0.4-1.1,0.8-1.6,0.9c-1,0.2-1.9-0.3-2.4-1.1c-0.4-0.9-0.3-2,0.4-2.7
		c1-0.9,2-1.8,2.9-2.7c5.3-4.8,10.7-9.6,16.1-14.3C46.7,9,47.9,8.6,49,8C49.6,8,50.2,8,50.8,8z"/>
	<path fill="#FD5471" d="M49.9,76c-9.4,0-18.8,0-28.3,0c-0.8,0-1.6-0.1-2.3-0.7c-1.2-1.3-0.6-3.3,1.1-3.8c0.4-0.1,0.8-0.1,1.2-0.1
		c18.8,0,37.6,0,56.4,0c0.4,0,0.8,0,1.2,0.1c1.1,0.2,1.8,1.3,1.8,2.3c-0.1,1.1-1,2-2.1,2.1c-0.3,0-0.7,0-1.1,0
		C68.6,76,59.2,76,49.9,76z"/>
</g>
</svg>
