<?xml version="1.0" encoding="utf-8"?>
<!-- Generator: Adobe Illustrator 21.1.0, SVG Export Plug-In . SVG Version: 6.00 Build 0)  -->
<svg version="1.0"
	 id="Layer_1" xmlns:cc="http://creativecommons.org/ns#" xmlns:dc="http://purl.org/dc/elements/1.1/" xmlns:inkscape="http://www.inkscape.org/namespaces/inkscape" xmlns:rdf="http://www.w3.org/1999/02/22-rdf-syntax-ns#" xmlns:sodipodi="http://sodipodi.sourceforge.net/DTD/sodipodi-0.dtd" xmlns:svg="http://www.w3.org/2000/svg"
	 xmlns="http://www.w3.org/2000/svg" xmlns:xlink="http://www.w3.org/1999/xlink" x="0px" y="0px" viewBox="0 0 100 78.9"
	 enable-background="new 0 0 100 78.9" xml:space="preserve">
<g transform="translate(0,-952.36218)">
	<path fill="#FFFFFF" d="M36,953.1c-9,0-16.4,7.4-16.4,16.4S27,985.8,36,985.8s16.4-7.4,16.4-16.4S45,953.1,36,953.1z M70.8,955.1
		c-7.3,0-13.3,6-13.3,13.3c0,7.3,6,13.3,13.3,13.3s13.3-6,13.3-13.3C84.1,961.1,78.1,955.1,70.8,955.1z M36,959.2
		c5.7,0,10.2,4.5,10.2,10.2c0,5.7-4.5,10.2-10.2,10.2s-10.2-4.5-10.2-10.2C25.8,963.7,30.4,959.2,36,959.2z M70.8,961.2
		c4,0,7.2,3.2,7.2,7.2c0,4-3.2,7.2-7.2,7.2c-4,0-7.2-3.2-7.2-7.2C63.6,964.4,66.8,961.2,70.8,961.2z M70.8,983.7
		c-8.6,0-16.3,2.3-20.9,7c-4.2-1.2-8.9-1.9-13.9-1.9c-8.7,0-16.6,2-22.5,5.5c-5.9,3.5-10.2,8.7-10.2,14.9v16.4
		c0,1.6,1.5,3.1,3.1,3.1h59.3c1.6,0,3.1-1.5,3.1-3.1v-10.2c7.6,0,13.6,0,23.5,0c1.6,0,3.1-1.5,3.1-3.1v-13.3c0-4.9-3.3-8.9-7.8-11.5
		S77.2,983.7,70.8,983.7z M70.8,989.9c5.5,0,10.4,1.3,13.7,3.1c3.3,1.8,4.7,4,4.7,6.1v10.2H68.8c0-6.2-4.2-11.4-10.2-14.9
		c-0.6-0.4-1.3-0.7-1.9-1.1C59.9,991.3,65,989.9,70.8,989.9z M36,995c7.7,0,14.7,1.9,19.4,4.7c4.8,2.8,7.2,6.3,7.2,9.6v13.3H9.5
		v-13.3c0-3.4,2.4-6.8,7.2-9.6C21.4,996.8,28.3,995,36,995z"/>
</g>
</svg>
